<?xml version="1.0" encoding="UTF-8"?>
<svg xmlns="http://www.w3.org/2000/svg" xmlns:xlink="http://www.w3.org/1999/xlink" width="100" height="69" viewBox="0 0 100 69">
<defs>
<g>
<g id="glyph-0-0">
<path d="M 6.03125 -4.71875 C 6.03125 -4.082031 5.820312 -3.570312 5.40625 -3.1875 C 4.988281 -2.8125 4.421875 -2.625 3.703125 -2.625 L 1.71875 -2.625 L 1.71875 0 L 0.8125 0 L 0.8125 -6.75 L 3.640625 -6.75 C 4.398438 -6.75 4.988281 -6.570312 5.40625 -6.21875 C 5.820312 -5.863281 6.03125 -5.363281 6.03125 -4.71875 Z M 5.109375 -4.703125 C 5.109375 -5.578125 4.582031 -6.015625 3.53125 -6.015625 L 1.71875 -6.015625 L 1.71875 -3.359375 L 3.578125 -3.359375 C 4.597656 -3.359375 5.109375 -3.804688 5.109375 -4.703125 Z M 5.109375 -4.703125 "/>
</g>
<g id="glyph-0-1">
<path d="M 0.6875 0 L 0.6875 -3.984375 C 0.6875 -4.335938 0.675781 -4.738281 0.65625 -5.1875 L 1.46875 -5.1875 C 1.488281 -4.59375 1.5 -4.238281 1.5 -4.125 L 1.53125 -4.125 C 1.664062 -4.570312 1.820312 -4.875 2 -5.03125 C 2.175781 -5.195312 2.425781 -5.28125 2.75 -5.28125 C 2.863281 -5.28125 2.984375 -5.265625 3.109375 -5.234375 L 3.109375 -4.4375 C 2.992188 -4.46875 2.835938 -4.484375 2.640625 -4.484375 C 2.285156 -4.484375 2.015625 -4.328125 1.828125 -4.015625 C 1.640625 -3.710938 1.546875 -3.273438 1.546875 -2.703125 L 1.546875 0 Z M 0.6875 0 "/>
</g>
<g id="glyph-0-2">
<path d="M 5.046875 -2.59375 C 5.046875 -1.6875 4.84375 -1.007812 4.4375 -0.5625 C 4.039062 -0.125 3.460938 0.09375 2.703125 0.09375 C 1.953125 0.09375 1.378906 -0.132812 0.984375 -0.59375 C 0.597656 -1.050781 0.40625 -1.71875 0.40625 -2.59375 C 0.40625 -4.382812 1.179688 -5.28125 2.734375 -5.28125 C 3.523438 -5.28125 4.109375 -5.0625 4.484375 -4.625 C 4.859375 -4.1875 5.046875 -3.507812 5.046875 -2.59375 Z M 4.140625 -2.59375 C 4.140625 -3.3125 4.03125 -3.832031 3.8125 -4.15625 C 3.601562 -4.476562 3.25 -4.640625 2.75 -4.640625 C 2.25 -4.640625 1.882812 -4.472656 1.65625 -4.140625 C 1.425781 -3.816406 1.3125 -3.300781 1.3125 -2.59375 C 1.3125 -1.914062 1.421875 -1.40625 1.640625 -1.0625 C 1.867188 -0.71875 2.222656 -0.546875 2.703125 -0.546875 C 3.210938 -0.546875 3.578125 -0.707031 3.796875 -1.03125 C 4.023438 -1.363281 4.140625 -1.882812 4.140625 -2.59375 Z M 4.140625 -2.59375 "/>
</g>
<g id="glyph-0-3">
<path d="M 2.9375 0 L 1.921875 0 L 0.03125 -5.1875 L 0.953125 -5.1875 L 2.09375 -1.8125 C 2.132812 -1.6875 2.242188 -1.304688 2.421875 -0.671875 L 2.59375 -1.234375 L 2.78125 -1.796875 L 3.953125 -5.1875 L 4.875 -5.1875 Z M 2.9375 0 "/>
</g>
<g id="glyph-0-4">
<path d="M 0.65625 -6.28125 L 0.65625 -7.109375 L 1.515625 -7.109375 L 1.515625 -6.28125 Z M 0.65625 0 L 0.65625 -5.1875 L 1.515625 -5.1875 L 1.515625 0 Z M 0.65625 0 "/>
</g>
<g id="glyph-0-5">
<path d="M 4.546875 -1.4375 C 4.546875 -0.945312 4.359375 -0.566406 3.984375 -0.296875 C 3.617188 -0.0351562 3.109375 0.09375 2.453125 0.09375 C 1.804688 0.09375 1.304688 -0.0078125 0.953125 -0.21875 C 0.609375 -0.4375 0.378906 -0.769531 0.265625 -1.21875 L 1.03125 -1.359375 C 1.101562 -1.085938 1.253906 -0.882812 1.484375 -0.75 C 1.710938 -0.625 2.035156 -0.5625 2.453125 -0.5625 C 2.890625 -0.5625 3.207031 -0.628906 3.40625 -0.765625 C 3.613281 -0.898438 3.71875 -1.097656 3.71875 -1.359375 C 3.71875 -1.566406 3.644531 -1.734375 3.5 -1.859375 C 3.363281 -1.992188 3.140625 -2.101562 2.828125 -2.1875 L 2.203125 -2.34375 C 1.710938 -2.46875 1.359375 -2.59375 1.140625 -2.71875 C 0.929688 -2.84375 0.769531 -2.992188 0.65625 -3.171875 C 0.539062 -3.347656 0.484375 -3.5625 0.484375 -3.8125 C 0.484375 -4.28125 0.648438 -4.640625 0.984375 -4.890625 C 1.316406 -5.140625 1.804688 -5.265625 2.453125 -5.265625 C 3.023438 -5.265625 3.476562 -5.160156 3.8125 -4.953125 C 4.15625 -4.753906 4.367188 -4.4375 4.453125 -4 L 3.6875 -3.90625 C 3.632812 -4.132812 3.503906 -4.304688 3.296875 -4.421875 C 3.085938 -4.546875 2.804688 -4.609375 2.453125 -4.609375 C 2.066406 -4.609375 1.78125 -4.550781 1.59375 -4.4375 C 1.40625 -4.320312 1.3125 -4.144531 1.3125 -3.90625 C 1.3125 -3.757812 1.347656 -3.632812 1.421875 -3.53125 C 1.503906 -3.4375 1.617188 -3.351562 1.765625 -3.28125 C 1.921875 -3.21875 2.238281 -3.128906 2.71875 -3.015625 C 3.175781 -2.898438 3.503906 -2.789062 3.703125 -2.6875 C 3.910156 -2.59375 4.070312 -2.484375 4.1875 -2.359375 C 4.300781 -2.242188 4.390625 -2.109375 4.453125 -1.953125 C 4.515625 -1.804688 4.546875 -1.632812 4.546875 -1.4375 Z M 4.546875 -1.4375 "/>
</g>
<g id="glyph-0-6">
<path d="M 3.953125 0 L 3.953125 -3.28125 C 3.953125 -3.625 3.914062 -3.890625 3.84375 -4.078125 C 3.78125 -4.265625 3.675781 -4.398438 3.53125 -4.484375 C 3.382812 -4.566406 3.171875 -4.609375 2.890625 -4.609375 C 2.472656 -4.609375 2.144531 -4.46875 1.90625 -4.1875 C 1.664062 -3.90625 1.546875 -3.507812 1.546875 -3 L 1.546875 0 L 0.6875 0 L 0.6875 -4.078125 C 0.6875 -4.679688 0.675781 -5.050781 0.65625 -5.1875 L 1.46875 -5.1875 C 1.46875 -5.164062 1.46875 -5.117188 1.46875 -5.046875 C 1.476562 -4.984375 1.484375 -4.90625 1.484375 -4.8125 C 1.492188 -4.71875 1.5 -4.546875 1.5 -4.296875 L 1.515625 -4.296875 C 1.710938 -4.648438 1.941406 -4.898438 2.203125 -5.046875 C 2.460938 -5.203125 2.785156 -5.28125 3.171875 -5.28125 C 3.742188 -5.28125 4.160156 -5.140625 4.421875 -4.859375 C 4.679688 -4.578125 4.8125 -4.109375 4.8125 -3.453125 L 4.8125 0 Z M 3.953125 0 "/>
</g>
<g id="glyph-0-7">
<path d="M 2.625 2.03125 C 2.0625 2.03125 1.609375 1.921875 1.265625 1.703125 C 0.929688 1.484375 0.71875 1.164062 0.625 0.75 L 1.5 0.625 C 1.550781 0.863281 1.675781 1.046875 1.875 1.171875 C 2.070312 1.304688 2.332031 1.375 2.65625 1.375 C 3.507812 1.375 3.9375 0.875 3.9375 -0.125 L 3.9375 -0.96875 L 3.921875 -0.96875 C 3.765625 -0.632812 3.539062 -0.382812 3.25 -0.21875 C 2.96875 -0.0507812 2.640625 0.03125 2.265625 0.03125 C 1.628906 0.03125 1.160156 -0.175781 0.859375 -0.59375 C 0.554688 -1.019531 0.40625 -1.679688 0.40625 -2.578125 C 0.40625 -3.492188 0.566406 -4.171875 0.890625 -4.609375 C 1.210938 -5.046875 1.703125 -5.265625 2.359375 -5.265625 C 2.722656 -5.265625 3.039062 -5.179688 3.3125 -5.015625 C 3.582031 -4.847656 3.789062 -4.609375 3.9375 -4.296875 L 3.953125 -4.296875 C 3.953125 -4.390625 3.957031 -4.554688 3.96875 -4.796875 C 3.976562 -5.035156 3.988281 -5.164062 4 -5.1875 L 4.828125 -5.1875 C 4.804688 -5.007812 4.796875 -4.648438 4.796875 -4.109375 L 4.796875 -0.15625 C 4.796875 1.300781 4.070312 2.03125 2.625 2.03125 Z M 3.9375 -2.59375 C 3.9375 -3.007812 3.878906 -3.367188 3.765625 -3.671875 C 3.648438 -3.984375 3.488281 -4.21875 3.28125 -4.375 C 3.070312 -4.539062 2.832031 -4.625 2.5625 -4.625 C 2.125 -4.625 1.800781 -4.460938 1.59375 -4.140625 C 1.394531 -3.828125 1.296875 -3.3125 1.296875 -2.59375 C 1.296875 -1.882812 1.390625 -1.375 1.578125 -1.0625 C 1.773438 -0.75 2.097656 -0.59375 2.546875 -0.59375 C 2.828125 -0.59375 3.070312 -0.671875 3.28125 -0.828125 C 3.488281 -0.992188 3.648438 -1.222656 3.765625 -1.515625 C 3.878906 -1.816406 3.9375 -2.175781 3.9375 -2.59375 Z M 3.9375 -2.59375 "/>
</g>
<g id="glyph-0-8">
</g>
<g id="glyph-0-9">
<path d="M 6.609375 -3.4375 C 6.609375 -2.75 6.472656 -2.140625 6.203125 -1.609375 C 5.929688 -1.085938 5.546875 -0.6875 5.046875 -0.40625 C 4.554688 -0.132812 3.984375 0 3.328125 0 L 0.8125 0 L 0.8125 -6.75 L 3.03125 -6.75 C 4.175781 -6.75 5.054688 -6.460938 5.671875 -5.890625 C 6.296875 -5.316406 6.609375 -4.5 6.609375 -3.4375 Z M 5.703125 -3.4375 C 5.703125 -4.28125 5.472656 -4.921875 5.015625 -5.359375 C 4.554688 -5.796875 3.890625 -6.015625 3.015625 -6.015625 L 1.71875 -6.015625 L 1.71875 -0.734375 L 3.21875 -0.734375 C 3.71875 -0.734375 4.15625 -0.84375 4.53125 -1.0625 C 4.90625 -1.28125 5.191406 -1.59375 5.390625 -2 C 5.597656 -2.40625 5.703125 -2.882812 5.703125 -3.4375 Z M 5.703125 -3.4375 "/>
</g>
<g id="glyph-0-10">
<path d="M 1.328125 -2.40625 C 1.328125 -1.8125 1.445312 -1.351562 1.6875 -1.03125 C 1.9375 -0.707031 2.296875 -0.546875 2.765625 -0.546875 C 3.140625 -0.546875 3.4375 -0.617188 3.65625 -0.765625 C 3.882812 -0.921875 4.039062 -1.113281 4.125 -1.34375 L 4.875 -1.125 C 4.570312 -0.3125 3.867188 0.09375 2.765625 0.09375 C 2.003906 0.09375 1.421875 -0.132812 1.015625 -0.59375 C 0.617188 -1.050781 0.421875 -1.726562 0.421875 -2.625 C 0.421875 -3.476562 0.617188 -4.132812 1.015625 -4.59375 C 1.421875 -5.050781 1.992188 -5.28125 2.734375 -5.28125 C 4.253906 -5.28125 5.015625 -4.363281 5.015625 -2.53125 L 5.015625 -2.40625 Z M 4.125 -3.078125 C 4.082031 -3.617188 3.945312 -4.015625 3.71875 -4.265625 C 3.488281 -4.515625 3.15625 -4.640625 2.71875 -4.640625 C 2.300781 -4.640625 1.96875 -4.5 1.71875 -4.21875 C 1.476562 -3.9375 1.347656 -3.554688 1.328125 -3.078125 Z M 4.125 -3.078125 "/>
</g>
<g id="glyph-0-11">
<path d="M 1.734375 -4.5625 L 1.734375 0 L 0.875 0 L 0.875 -4.5625 L 0.140625 -4.5625 L 0.140625 -5.1875 L 0.875 -5.1875 L 0.875 -5.765625 C 0.875 -6.242188 0.972656 -6.582031 1.171875 -6.78125 C 1.378906 -6.988281 1.695312 -7.09375 2.125 -7.09375 C 2.363281 -7.09375 2.566406 -7.078125 2.734375 -7.046875 L 2.734375 -6.390625 C 2.597656 -6.410156 2.472656 -6.421875 2.359375 -6.421875 C 2.140625 -6.421875 1.976562 -6.363281 1.875 -6.25 C 1.78125 -6.144531 1.734375 -5.945312 1.734375 -5.65625 L 1.734375 -5.1875 L 2.734375 -5.1875 L 2.734375 -4.5625 Z M 1.734375 -4.5625 "/>
</g>
<g id="glyph-0-12">
<path d="M 2.65625 -0.03125 C 2.375 0.0390625 2.082031 0.078125 1.78125 0.078125 C 1.09375 0.078125 0.75 -0.3125 0.75 -1.09375 L 0.75 -4.5625 L 0.15625 -4.5625 L 0.15625 -5.1875 L 0.78125 -5.1875 L 1.03125 -6.34375 L 1.609375 -6.34375 L 1.609375 -5.1875 L 2.5625 -5.1875 L 2.5625 -4.5625 L 1.609375 -4.5625 L 1.609375 -1.28125 C 1.609375 -1.03125 1.648438 -0.851562 1.734375 -0.75 C 1.816406 -0.65625 1.957031 -0.609375 2.15625 -0.609375 C 2.269531 -0.609375 2.4375 -0.628906 2.65625 -0.671875 Z M 2.65625 -0.03125 "/>
</g>
<g id="glyph-0-13">
<path d="M 6.546875 0 L 6.546875 -4.5 C 6.546875 -5 6.5625 -5.476562 6.59375 -5.9375 C 6.4375 -5.363281 6.296875 -4.914062 6.171875 -4.59375 L 4.421875 0 L 3.78125 0 L 2.015625 -4.59375 L 1.75 -5.421875 L 1.578125 -5.9375 L 1.59375 -5.40625 L 1.625 -4.5 L 1.625 0 L 0.8125 0 L 0.8125 -6.75 L 2 -6.75 L 3.796875 -2.0625 C 3.867188 -1.875 3.929688 -1.671875 3.984375 -1.453125 C 4.046875 -1.242188 4.085938 -1.09375 4.109375 -1 C 4.128906 -1.125 4.179688 -1.316406 4.265625 -1.578125 C 4.347656 -1.835938 4.40625 -2 4.4375 -2.0625 L 6.1875 -6.75 L 7.375 -6.75 L 7.375 0 Z M 6.546875 0 "/>
</g>
<g id="glyph-0-14">
<path d="M 1.984375 0.09375 C 1.460938 0.09375 1.070312 -0.0390625 0.8125 -0.3125 C 0.550781 -0.59375 0.421875 -0.972656 0.421875 -1.453125 C 0.421875 -1.984375 0.59375 -2.390625 0.9375 -2.671875 C 1.289062 -2.960938 1.863281 -3.117188 2.65625 -3.140625 L 3.8125 -3.15625 L 3.8125 -3.4375 C 3.8125 -3.863281 3.722656 -4.164062 3.546875 -4.34375 C 3.367188 -4.53125 3.085938 -4.625 2.703125 -4.625 C 2.316406 -4.625 2.035156 -4.554688 1.859375 -4.421875 C 1.679688 -4.296875 1.578125 -4.085938 1.546875 -3.796875 L 0.640625 -3.875 C 0.796875 -4.8125 1.488281 -5.28125 2.71875 -5.28125 C 3.375 -5.28125 3.863281 -5.128906 4.1875 -4.828125 C 4.519531 -4.535156 4.6875 -4.101562 4.6875 -3.53125 L 4.6875 -1.296875 C 4.6875 -1.046875 4.71875 -0.851562 4.78125 -0.71875 C 4.851562 -0.59375 4.984375 -0.53125 5.171875 -0.53125 C 5.253906 -0.53125 5.347656 -0.539062 5.453125 -0.5625 L 5.453125 -0.03125 C 5.234375 0.0195312 5.015625 0.046875 4.796875 0.046875 C 4.472656 0.046875 4.238281 -0.0351562 4.09375 -0.203125 C 3.945312 -0.367188 3.863281 -0.628906 3.84375 -0.984375 L 3.8125 -0.984375 C 3.59375 -0.585938 3.335938 -0.304688 3.046875 -0.140625 C 2.753906 0.015625 2.398438 0.09375 1.984375 0.09375 Z M 2.1875 -0.546875 C 2.5 -0.546875 2.773438 -0.617188 3.015625 -0.765625 C 3.265625 -0.910156 3.457031 -1.109375 3.59375 -1.359375 C 3.738281 -1.609375 3.8125 -1.863281 3.8125 -2.125 L 3.8125 -2.5625 L 2.875 -2.546875 C 2.46875 -2.535156 2.160156 -2.488281 1.953125 -2.40625 C 1.742188 -2.332031 1.582031 -2.21875 1.46875 -2.0625 C 1.351562 -1.90625 1.296875 -1.695312 1.296875 -1.4375 C 1.296875 -1.15625 1.375 -0.9375 1.53125 -0.78125 C 1.6875 -0.625 1.90625 -0.546875 2.1875 -0.546875 Z M 2.1875 -0.546875 "/>
</g>
<g id="glyph-0-15">
<path d="M 1.3125 -2.609375 C 1.3125 -1.921875 1.421875 -1.410156 1.640625 -1.078125 C 1.859375 -0.742188 2.1875 -0.578125 2.625 -0.578125 C 2.925781 -0.578125 3.179688 -0.660156 3.390625 -0.828125 C 3.597656 -0.992188 3.726562 -1.25 3.78125 -1.59375 L 4.640625 -1.546875 C 4.578125 -1.046875 4.363281 -0.644531 4 -0.34375 C 3.644531 -0.0507812 3.195312 0.09375 2.65625 0.09375 C 1.925781 0.09375 1.367188 -0.132812 0.984375 -0.59375 C 0.609375 -1.050781 0.421875 -1.71875 0.421875 -2.59375 C 0.421875 -3.46875 0.609375 -4.132812 0.984375 -4.59375 C 1.367188 -5.050781 1.921875 -5.28125 2.640625 -5.28125 C 3.171875 -5.28125 3.609375 -5.140625 3.953125 -4.859375 C 4.304688 -4.585938 4.53125 -4.210938 4.625 -3.734375 L 3.734375 -3.671875 C 3.691406 -3.953125 3.578125 -4.175781 3.390625 -4.34375 C 3.210938 -4.519531 2.953125 -4.609375 2.609375 -4.609375 C 2.160156 -4.609375 1.832031 -4.453125 1.625 -4.140625 C 1.414062 -3.835938 1.3125 -3.328125 1.3125 -2.609375 Z M 1.3125 -2.609375 "/>
</g>
<g id="glyph-0-16">
<path d="M 5.59375 0 L 4.8125 -1.96875 L 1.75 -1.96875 L 0.96875 0 L 0.015625 0 L 2.78125 -6.75 L 3.8125 -6.75 L 6.53125 0 Z M 3.28125 -6.0625 L 3.234375 -5.921875 C 3.160156 -5.660156 3.046875 -5.320312 2.890625 -4.90625 L 2.015625 -2.6875 L 4.546875 -2.6875 L 3.6875 -4.921875 C 3.59375 -5.140625 3.5 -5.382812 3.40625 -5.65625 Z M 3.28125 -6.0625 "/>
</g>
<g id="glyph-0-17">
<path d="M 0.921875 2.03125 C 0.679688 2.03125 0.484375 2.015625 0.328125 1.984375 L 0.328125 1.34375 C 0.441406 1.351562 0.570312 1.359375 0.71875 1.359375 C 1.257812 1.359375 1.6875 0.96875 2 0.1875 L 2.078125 -0.03125 L 0.03125 -5.1875 L 0.9375 -5.1875 L 2.03125 -2.3125 C 2.050781 -2.269531 2.070312 -2.21875 2.09375 -2.15625 C 2.113281 -2.09375 2.179688 -1.882812 2.296875 -1.53125 C 2.421875 -1.175781 2.488281 -0.976562 2.5 -0.9375 L 2.84375 -1.890625 L 3.984375 -5.1875 L 4.890625 -5.1875 L 2.890625 0 C 2.679688 0.550781 2.484375 0.960938 2.296875 1.234375 C 2.109375 1.503906 1.898438 1.703125 1.671875 1.828125 C 1.453125 1.960938 1.203125 2.03125 0.921875 2.03125 Z M 0.921875 2.03125 "/>
</g>
</g>
</defs>
<rect x="-10" y="-6.9" width="120" height="82.8" fill="rgb(100%, 100%, 100%)" fill-opacity="1"/>
<path fill="none" stroke-width="0.1" stroke-linecap="butt" stroke-linejoin="miter" stroke="rgb(59.999084%, 0%, 19.999695%)" stroke-opacity="1" stroke-miterlimit="10" d="M 312.660156 431.261719 L 312.660156 432.253906 L 312.40625 432.511719 L 312.40625 433.277344 L 312.152344 433.53125 L 312.152344 434.039062 L 311.894531 434.296875 L 311.613281 434.523438 L 311.613281 434.777344 L 311.355469 435.03125 L 311.101562 435.289062 L 311.101562 435.542969 L 310.847656 435.542969 L 310.59375 435.796875 L 310.59375 436.054688 L 310.335938 436.054688 L 309.828125 436.5625 L 309.570312 436.5625 L 309.316406 436.820312 L 309.0625 437.046875 L 308.523438 437.046875 L 308.269531 437.300781 L 307.503906 437.300781 L 307.246094 437.554688 L 305.179688 437.554688 L 304.921875 437.300781 L 304.15625 437.300781 L 303.902344 437.046875 L 303.390625 437.046875 L 303.136719 436.820312 L 302.882812 436.5625 L 302.628906 436.5625 L 302.34375 436.308594 L 302.089844 436.054688 L 301.832031 436.054688 L 301.832031 435.796875 L 301.578125 435.542969 L 301.324219 435.542969 L 301.324219 435.289062 L 300.8125 434.777344 L 300.8125 434.523438 L 300.558594 434.296875 L 300.300781 434.039062 L 300.300781 433.53125 L 300.046875 433.277344 L 300.046875 432.511719 L 299.792969 432.253906 L 299.792969 430.242188 L 300.046875 429.988281 L 300.046875 429.222656 L 300.300781 428.996094 L 300.300781 428.484375 L 300.558594 428.230469 L 300.8125 427.976562 L 300.8125 427.71875 L 301.066406 427.464844 L 301.324219 427.210938 L 301.324219 426.953125 L 301.578125 426.953125 L 301.832031 426.699219 L 301.832031 426.472656 L 302.089844 426.472656 L 302.34375 426.21875 L 302.628906 425.960938 L 302.882812 425.960938 L 303.390625 425.453125 L 303.902344 425.453125 L 304.15625 425.195312 L 304.921875 425.195312 L 305.179688 424.941406 L 307.246094 424.941406 L 307.503906 425.195312 L 308.269531 425.195312 L 308.523438 425.453125 L 309.0625 425.453125 L 309.570312 425.960938 L 309.828125 425.960938 L 310.082031 426.21875 L 310.335938 426.472656 L 310.59375 426.472656 L 310.59375 426.699219 L 310.847656 426.953125 L 311.101562 426.953125 L 311.101562 427.210938 L 311.355469 427.464844 L 311.613281 427.71875 L 311.613281 427.976562 L 311.894531 428.230469 L 312.152344 428.484375 L 312.152344 428.996094 L 312.40625 429.222656 L 312.40625 429.988281 L 312.660156 430.242188 Z M 312.660156 431.261719 " transform="matrix(1, 0, 0, -1, -256, 438)"/>
<path fill="none" stroke-width="0.1" stroke-linecap="butt" stroke-linejoin="miter" stroke="rgb(59.999084%, 0%, 19.999695%)" stroke-opacity="1" stroke-miterlimit="10" d="M 305.972656 425.195312 L 305.972656 413.601562 " transform="matrix(1, 0, 0, -1, -256, 438)"/>
<path fill="none" stroke-width="0.1" stroke-linecap="butt" stroke-linejoin="miter" stroke="rgb(59.999084%, 0%, 19.999695%)" stroke-opacity="1" stroke-miterlimit="10" d="M 295.910156 421.910156 L 316.007812 421.910156 " transform="matrix(1, 0, 0, -1, -256, 438)"/>
<path fill="none" stroke-width="0.1" stroke-linecap="butt" stroke-linejoin="miter" stroke="rgb(59.999084%, 0%, 19.999695%)" stroke-opacity="1" stroke-miterlimit="10" d="M 292.054688 399.96875 L 305.972656 413.601562 L 319.859375 399.96875 " transform="matrix(1, 0, 0, -1, -256, 438)"/>
<g fill="rgb(0%, 0%, 0%)" fill-opacity="1">
<use xlink:href="#glyph-0-0" x="0.082" y="54.331"/>
</g>
<g fill="rgb(0%, 0%, 0%)" fill-opacity="1">
<use xlink:href="#glyph-0-1" x="6.80048" y="54.331"/>
</g>
<g fill="rgb(0%, 0%, 0%)" fill-opacity="1">
<use xlink:href="#glyph-0-2" x="9.919424" y="54.331"/>
</g>
<g fill="rgb(0%, 0%, 0%)" fill-opacity="1">
<use xlink:href="#glyph-0-3" x="15.196128" y="54.331"/>
</g>
<g fill="rgb(0%, 0%, 0%)" fill-opacity="1">
<use xlink:href="#glyph-0-4" x="18.795664" y="54.331"/>
</g>
<g fill="rgb(0%, 0%, 0%)" fill-opacity="1">
<use xlink:href="#glyph-0-5" x="21.1692" y="54.331"/>
</g>
<g fill="rgb(0%, 0%, 0%)" fill-opacity="1">
<use xlink:href="#glyph-0-4" x="26.210512" y="54.331"/>
</g>
<g fill="rgb(0%, 0%, 0%)" fill-opacity="1">
<use xlink:href="#glyph-0-2" x="28.584048" y="54.331"/>
</g>
<g fill="rgb(0%, 0%, 0%)" fill-opacity="1">
<use xlink:href="#glyph-0-6" x="33.860752" y="54.331"/>
</g>
<g fill="rgb(0%, 0%, 0%)" fill-opacity="1">
<use xlink:href="#glyph-0-4" x="39.16688" y="54.331"/>
</g>
<g fill="rgb(0%, 0%, 0%)" fill-opacity="1">
<use xlink:href="#glyph-0-6" x="41.32464" y="54.331"/>
</g>
<g fill="rgb(0%, 0%, 0%)" fill-opacity="1">
<use xlink:href="#glyph-0-7" x="46.601344" y="54.331"/>
</g>
<g fill="rgb(0%, 0%, 0%)" fill-opacity="1">
<use xlink:href="#glyph-0-8" x="51.878048" y="54.331"/>
</g>
<g fill="rgb(0%, 0%, 0%)" fill-opacity="1">
<use xlink:href="#glyph-0-9" x="54.732176" y="54.331"/>
</g>
<g fill="rgb(0%, 0%, 0%)" fill-opacity="1">
<use xlink:href="#glyph-0-10" x="61.460464" y="54.331"/>
</g>
<g fill="rgb(0%, 0%, 0%)" fill-opacity="1">
<use xlink:href="#glyph-0-11" x="66.737168" y="54.331"/>
</g>
<g fill="rgb(0%, 0%, 0%)" fill-opacity="1">
<use xlink:href="#glyph-0-4" x="69.149936" y="54.331"/>
</g>
<g fill="rgb(0%, 0%, 0%)" fill-opacity="1">
<use xlink:href="#glyph-0-6" x="71.307696" y="54.331"/>
</g>
<g fill="rgb(0%, 0%, 0%)" fill-opacity="1">
<use xlink:href="#glyph-0-4" x="76.5844" y="54.331"/>
</g>
<g fill="rgb(0%, 0%, 0%)" fill-opacity="1">
<use xlink:href="#glyph-0-12" x="78.74216" y="54.331"/>
</g>
<g fill="rgb(0%, 0%, 0%)" fill-opacity="1">
<use xlink:href="#glyph-0-4" x="81.851296" y="54.331"/>
</g>
<g fill="rgb(0%, 0%, 0%)" fill-opacity="1">
<use xlink:href="#glyph-0-2" x="84.009056" y="54.331"/>
</g>
<g fill="rgb(0%, 0%, 0%)" fill-opacity="1">
<use xlink:href="#glyph-0-6" x="89.28576" y="54.331"/>
</g>
<g fill="rgb(0%, 0%, 0%)" fill-opacity="1">
<use xlink:href="#glyph-0-5" x="94.562464" y="54.331"/>
</g>
<g fill="rgb(0%, 0%, 0%)" fill-opacity="1">
<use xlink:href="#glyph-0-8" x="2.718" y="66.321"/>
</g>
<g fill="rgb(0%, 0%, 0%)" fill-opacity="1">
<use xlink:href="#glyph-0-13" x="5.827136" y="66.321"/>
</g>
<g fill="rgb(0%, 0%, 0%)" fill-opacity="1">
<use xlink:href="#glyph-0-14" x="13.967776" y="66.321"/>
</g>
<g fill="rgb(0%, 0%, 0%)" fill-opacity="1">
<use xlink:href="#glyph-0-4" x="19.273904" y="66.321"/>
</g>
<g fill="rgb(0%, 0%, 0%)" fill-opacity="1">
<use xlink:href="#glyph-0-6" x="21.431664" y="66.321"/>
</g>
<g fill="rgb(0%, 0%, 0%)" fill-opacity="1">
<use xlink:href="#glyph-0-12" x="26.708368" y="66.321"/>
</g>
<g fill="rgb(0%, 0%, 0%)" fill-opacity="1">
<use xlink:href="#glyph-0-10" x="29.817504" y="66.321"/>
</g>
<g fill="rgb(0%, 0%, 0%)" fill-opacity="1">
<use xlink:href="#glyph-0-6" x="34.8392" y="66.321"/>
</g>
<g fill="rgb(0%, 0%, 0%)" fill-opacity="1">
<use xlink:href="#glyph-0-14" x="40.115904" y="66.321"/>
</g>
<g fill="rgb(0%, 0%, 0%)" fill-opacity="1">
<use xlink:href="#glyph-0-6" x="45.392608" y="66.321"/>
</g>
<g fill="rgb(0%, 0%, 0%)" fill-opacity="1">
<use xlink:href="#glyph-0-15" x="50.669312" y="66.321"/>
</g>
<g fill="rgb(0%, 0%, 0%)" fill-opacity="1">
<use xlink:href="#glyph-0-10" x="55.965632" y="66.321"/>
</g>
<g fill="rgb(0%, 0%, 0%)" fill-opacity="1">
<use xlink:href="#glyph-0-8" x="61.242336" y="66.321"/>
</g>
<g fill="rgb(0%, 0%, 0%)" fill-opacity="1">
<use xlink:href="#glyph-0-16" x="64.096464" y="66.321"/>
</g>
<g fill="rgb(0%, 0%, 0%)" fill-opacity="1">
<use xlink:href="#glyph-0-7" x="70.814944" y="66.321"/>
</g>
<g fill="rgb(0%, 0%, 0%)" fill-opacity="1">
<use xlink:href="#glyph-0-10" x="76.091648" y="66.321"/>
</g>
<g fill="rgb(0%, 0%, 0%)" fill-opacity="1">
<use xlink:href="#glyph-0-6" x="81.368352" y="66.321"/>
</g>
<g fill="rgb(0%, 0%, 0%)" fill-opacity="1">
<use xlink:href="#glyph-0-15" x="86.645056" y="66.321"/>
</g>
<g fill="rgb(0%, 0%, 0%)" fill-opacity="1">
<use xlink:href="#glyph-0-17" x="91.911952" y="66.321"/>
</g>
</svg>
