<?xml version="1.0" encoding="UTF-8"?>
<svg xmlns="http://www.w3.org/2000/svg" xmlns:xlink="http://www.w3.org/1999/xlink" width="79" height="64" viewBox="0 0 79 64">
<defs>
<g>
<g id="glyph-0-0">
<path d="M 6.03125 -4.71875 C 6.03125 -4.082031 5.820312 -3.570312 5.40625 -3.1875 C 4.988281 -2.8125 4.421875 -2.625 3.703125 -2.625 L 1.71875 -2.625 L 1.71875 0 L 0.8125 0 L 0.8125 -6.75 L 3.640625 -6.75 C 4.398438 -6.75 4.988281 -6.570312 5.40625 -6.21875 C 5.820312 -5.863281 6.03125 -5.363281 6.03125 -4.71875 Z M 5.109375 -4.703125 C 5.109375 -5.578125 4.582031 -6.015625 3.53125 -6.015625 L 1.71875 -6.015625 L 1.71875 -3.359375 L 3.578125 -3.359375 C 4.597656 -3.359375 5.109375 -3.804688 5.109375 -4.703125 Z M 5.109375 -4.703125 "/>
</g>
<g id="glyph-0-1">
<path d="M 1.5 -5.1875 L 1.5 -1.890625 C 1.5 -1.554688 1.53125 -1.289062 1.59375 -1.09375 C 1.664062 -0.90625 1.773438 -0.769531 1.921875 -0.6875 C 2.066406 -0.601562 2.285156 -0.5625 2.578125 -0.5625 C 2.992188 -0.5625 3.320312 -0.703125 3.5625 -0.984375 C 3.800781 -1.273438 3.921875 -1.675781 3.921875 -2.1875 L 3.921875 -5.1875 L 4.78125 -5.1875 L 4.78125 -1.109375 C 4.78125 -0.503906 4.789062 -0.132812 4.8125 0 L 3.984375 0 C 3.984375 -0.0195312 3.984375 -0.0625 3.984375 -0.125 C 3.984375 -0.195312 3.976562 -0.28125 3.96875 -0.375 C 3.96875 -0.46875 3.960938 -0.640625 3.953125 -0.890625 L 3.9375 -0.890625 C 3.738281 -0.523438 3.507812 -0.269531 3.25 -0.125 C 2.988281 0.0195312 2.664062 0.09375 2.28125 0.09375 C 1.707031 0.09375 1.289062 -0.046875 1.03125 -0.328125 C 0.769531 -0.609375 0.640625 -1.078125 0.640625 -1.734375 L 0.640625 -5.1875 Z M 1.5 -5.1875 "/>
</g>
<g id="glyph-0-2">
<path d="M 5.046875 -2.609375 C 5.046875 -0.804688 4.410156 0.09375 3.140625 0.09375 C 2.742188 0.09375 2.414062 0.0234375 2.15625 -0.109375 C 1.894531 -0.253906 1.6875 -0.488281 1.53125 -0.8125 L 1.515625 -0.8125 C 1.515625 -0.707031 1.503906 -0.550781 1.484375 -0.34375 C 1.472656 -0.144531 1.46875 -0.03125 1.46875 0 L 0.625 0 C 0.644531 -0.175781 0.65625 -0.53125 0.65625 -1.0625 L 0.65625 -7.109375 L 1.53125 -7.109375 L 1.53125 -5.078125 C 1.53125 -4.867188 1.519531 -4.625 1.5 -4.34375 L 1.53125 -4.34375 C 1.6875 -4.675781 1.894531 -4.914062 2.15625 -5.0625 C 2.414062 -5.207031 2.742188 -5.28125 3.140625 -5.28125 C 3.796875 -5.28125 4.273438 -5.054688 4.578125 -4.609375 C 4.890625 -4.171875 5.046875 -3.503906 5.046875 -2.609375 Z M 4.140625 -2.59375 C 4.140625 -3.3125 4.039062 -3.828125 3.84375 -4.140625 C 3.65625 -4.453125 3.347656 -4.609375 2.921875 -4.609375 C 2.429688 -4.609375 2.078125 -4.441406 1.859375 -4.109375 C 1.640625 -3.785156 1.53125 -3.257812 1.53125 -2.53125 C 1.53125 -1.851562 1.632812 -1.351562 1.84375 -1.03125 C 2.0625 -0.707031 2.414062 -0.546875 2.90625 -0.546875 C 3.34375 -0.546875 3.65625 -0.703125 3.84375 -1.015625 C 4.039062 -1.335938 4.140625 -1.863281 4.140625 -2.59375 Z M 4.140625 -2.59375 "/>
</g>
<g id="glyph-0-3">
<path d="M 0.65625 0 L 0.65625 -7.109375 L 1.53125 -7.109375 L 1.53125 0 Z M 0.65625 0 "/>
</g>
<g id="glyph-0-4">
<path d="M 0.65625 -6.28125 L 0.65625 -7.109375 L 1.515625 -7.109375 L 1.515625 -6.28125 Z M 0.65625 0 L 0.65625 -5.1875 L 1.515625 -5.1875 L 1.515625 0 Z M 0.65625 0 "/>
</g>
<g id="glyph-0-5">
<path d="M 4.546875 -1.4375 C 4.546875 -0.945312 4.359375 -0.566406 3.984375 -0.296875 C 3.617188 -0.0351562 3.109375 0.09375 2.453125 0.09375 C 1.804688 0.09375 1.304688 -0.0078125 0.953125 -0.21875 C 0.609375 -0.4375 0.378906 -0.769531 0.265625 -1.21875 L 1.03125 -1.359375 C 1.101562 -1.085938 1.253906 -0.882812 1.484375 -0.75 C 1.710938 -0.625 2.035156 -0.5625 2.453125 -0.5625 C 2.890625 -0.5625 3.207031 -0.628906 3.40625 -0.765625 C 3.613281 -0.898438 3.71875 -1.097656 3.71875 -1.359375 C 3.71875 -1.566406 3.644531 -1.734375 3.5 -1.859375 C 3.363281 -1.992188 3.140625 -2.101562 2.828125 -2.1875 L 2.203125 -2.34375 C 1.710938 -2.46875 1.359375 -2.59375 1.140625 -2.71875 C 0.929688 -2.84375 0.769531 -2.992188 0.65625 -3.171875 C 0.539062 -3.347656 0.484375 -3.5625 0.484375 -3.8125 C 0.484375 -4.28125 0.648438 -4.640625 0.984375 -4.890625 C 1.316406 -5.140625 1.804688 -5.265625 2.453125 -5.265625 C 3.023438 -5.265625 3.476562 -5.160156 3.8125 -4.953125 C 4.15625 -4.753906 4.367188 -4.4375 4.453125 -4 L 3.6875 -3.90625 C 3.632812 -4.132812 3.503906 -4.304688 3.296875 -4.421875 C 3.085938 -4.546875 2.804688 -4.609375 2.453125 -4.609375 C 2.066406 -4.609375 1.78125 -4.550781 1.59375 -4.4375 C 1.40625 -4.320312 1.3125 -4.144531 1.3125 -3.90625 C 1.3125 -3.757812 1.347656 -3.632812 1.421875 -3.53125 C 1.503906 -3.4375 1.617188 -3.351562 1.765625 -3.28125 C 1.921875 -3.21875 2.238281 -3.128906 2.71875 -3.015625 C 3.175781 -2.898438 3.503906 -2.789062 3.703125 -2.6875 C 3.910156 -2.59375 4.070312 -2.484375 4.1875 -2.359375 C 4.300781 -2.242188 4.390625 -2.109375 4.453125 -1.953125 C 4.515625 -1.804688 4.546875 -1.632812 4.546875 -1.4375 Z M 4.546875 -1.4375 "/>
</g>
<g id="glyph-0-6">
<path d="M 1.515625 -4.296875 C 1.703125 -4.640625 1.925781 -4.890625 2.1875 -5.046875 C 2.445312 -5.203125 2.773438 -5.28125 3.171875 -5.28125 C 3.734375 -5.28125 4.144531 -5.140625 4.40625 -4.859375 C 4.675781 -4.578125 4.8125 -4.109375 4.8125 -3.453125 L 4.8125 0 L 3.953125 0 L 3.953125 -3.28125 C 3.953125 -3.644531 3.914062 -3.914062 3.84375 -4.09375 C 3.78125 -4.269531 3.671875 -4.398438 3.515625 -4.484375 C 3.367188 -4.566406 3.160156 -4.609375 2.890625 -4.609375 C 2.484375 -4.609375 2.15625 -4.46875 1.90625 -4.1875 C 1.664062 -3.90625 1.546875 -3.53125 1.546875 -3.0625 L 1.546875 0 L 0.6875 0 L 0.6875 -7.109375 L 1.546875 -7.109375 L 1.546875 -5.265625 C 1.546875 -5.066406 1.539062 -4.863281 1.53125 -4.65625 C 1.519531 -4.445312 1.507812 -4.328125 1.5 -4.296875 Z M 1.515625 -4.296875 "/>
</g>
<g id="glyph-0-7">
</g>
<g id="glyph-0-8">
<path d="M 5.578125 0 L 3.828125 -2.796875 L 1.71875 -2.796875 L 1.71875 0 L 0.8125 0 L 0.8125 -6.75 L 3.984375 -6.75 C 4.742188 -6.75 5.328125 -6.578125 5.734375 -6.234375 C 6.148438 -5.898438 6.359375 -5.425781 6.359375 -4.8125 C 6.359375 -4.3125 6.210938 -3.890625 5.921875 -3.546875 C 5.628906 -3.210938 5.226562 -3 4.71875 -2.90625 L 6.625 0 Z M 5.4375 -4.8125 C 5.4375 -5.207031 5.300781 -5.503906 5.03125 -5.703125 C 4.769531 -5.910156 4.390625 -6.015625 3.890625 -6.015625 L 1.71875 -6.015625 L 1.71875 -3.53125 L 3.921875 -3.53125 C 4.410156 -3.53125 4.785156 -3.640625 5.046875 -3.859375 C 5.304688 -4.085938 5.4375 -4.40625 5.4375 -4.8125 Z M 5.4375 -4.8125 "/>
</g>
<g id="glyph-0-9">
<path d="M 1.328125 -2.40625 C 1.328125 -1.8125 1.445312 -1.351562 1.6875 -1.03125 C 1.9375 -0.707031 2.296875 -0.546875 2.765625 -0.546875 C 3.140625 -0.546875 3.4375 -0.617188 3.65625 -0.765625 C 3.882812 -0.921875 4.039062 -1.113281 4.125 -1.34375 L 4.875 -1.125 C 4.570312 -0.3125 3.867188 0.09375 2.765625 0.09375 C 2.003906 0.09375 1.421875 -0.132812 1.015625 -0.59375 C 0.617188 -1.050781 0.421875 -1.726562 0.421875 -2.625 C 0.421875 -3.476562 0.617188 -4.132812 1.015625 -4.59375 C 1.421875 -5.050781 1.992188 -5.28125 2.734375 -5.28125 C 4.253906 -5.28125 5.015625 -4.363281 5.015625 -2.53125 L 5.015625 -2.40625 Z M 4.125 -3.078125 C 4.082031 -3.617188 3.945312 -4.015625 3.71875 -4.265625 C 3.488281 -4.515625 3.15625 -4.640625 2.71875 -4.640625 C 2.300781 -4.640625 1.96875 -4.5 1.71875 -4.21875 C 1.476562 -3.9375 1.347656 -3.554688 1.328125 -3.078125 Z M 4.125 -3.078125 "/>
</g>
<g id="glyph-0-10">
<path d="M 1.734375 -4.5625 L 1.734375 0 L 0.875 0 L 0.875 -4.5625 L 0.140625 -4.5625 L 0.140625 -5.1875 L 0.875 -5.1875 L 0.875 -5.765625 C 0.875 -6.242188 0.972656 -6.582031 1.171875 -6.78125 C 1.378906 -6.988281 1.695312 -7.09375 2.125 -7.09375 C 2.363281 -7.09375 2.566406 -7.078125 2.734375 -7.046875 L 2.734375 -6.390625 C 2.597656 -6.410156 2.472656 -6.421875 2.359375 -6.421875 C 2.140625 -6.421875 1.976562 -6.363281 1.875 -6.25 C 1.78125 -6.144531 1.734375 -5.945312 1.734375 -5.65625 L 1.734375 -5.1875 L 2.734375 -5.1875 L 2.734375 -4.5625 Z M 1.734375 -4.5625 "/>
</g>
<g id="glyph-0-11">
<path d="M 0.6875 0 L 0.6875 -3.984375 C 0.6875 -4.335938 0.675781 -4.738281 0.65625 -5.1875 L 1.46875 -5.1875 C 1.488281 -4.59375 1.5 -4.238281 1.5 -4.125 L 1.53125 -4.125 C 1.664062 -4.570312 1.820312 -4.875 2 -5.03125 C 2.175781 -5.195312 2.425781 -5.28125 2.75 -5.28125 C 2.863281 -5.28125 2.984375 -5.265625 3.109375 -5.234375 L 3.109375 -4.4375 C 2.992188 -4.46875 2.835938 -4.484375 2.640625 -4.484375 C 2.285156 -4.484375 2.015625 -4.328125 1.828125 -4.015625 C 1.640625 -3.710938 1.546875 -3.273438 1.546875 -2.703125 L 1.546875 0 Z M 0.6875 0 "/>
</g>
<g id="glyph-0-12">
<path d="M 3.953125 0 L 3.953125 -3.28125 C 3.953125 -3.625 3.914062 -3.890625 3.84375 -4.078125 C 3.78125 -4.265625 3.675781 -4.398438 3.53125 -4.484375 C 3.382812 -4.566406 3.171875 -4.609375 2.890625 -4.609375 C 2.472656 -4.609375 2.144531 -4.46875 1.90625 -4.1875 C 1.664062 -3.90625 1.546875 -3.507812 1.546875 -3 L 1.546875 0 L 0.6875 0 L 0.6875 -4.078125 C 0.6875 -4.679688 0.675781 -5.050781 0.65625 -5.1875 L 1.46875 -5.1875 C 1.46875 -5.164062 1.46875 -5.117188 1.46875 -5.046875 C 1.476562 -4.984375 1.484375 -4.90625 1.484375 -4.8125 C 1.492188 -4.71875 1.5 -4.546875 1.5 -4.296875 L 1.515625 -4.296875 C 1.710938 -4.648438 1.941406 -4.898438 2.203125 -5.046875 C 2.460938 -5.203125 2.785156 -5.28125 3.171875 -5.28125 C 3.742188 -5.28125 4.160156 -5.140625 4.421875 -4.859375 C 4.679688 -4.578125 4.8125 -4.109375 4.8125 -3.453125 L 4.8125 0 Z M 3.953125 0 "/>
</g>
<g id="glyph-0-13">
<path d="M 1.3125 -2.609375 C 1.3125 -1.921875 1.421875 -1.410156 1.640625 -1.078125 C 1.859375 -0.742188 2.1875 -0.578125 2.625 -0.578125 C 2.925781 -0.578125 3.179688 -0.660156 3.390625 -0.828125 C 3.597656 -0.992188 3.726562 -1.25 3.78125 -1.59375 L 4.640625 -1.546875 C 4.578125 -1.046875 4.363281 -0.644531 4 -0.34375 C 3.644531 -0.0507812 3.195312 0.09375 2.65625 0.09375 C 1.925781 0.09375 1.367188 -0.132812 0.984375 -0.59375 C 0.609375 -1.050781 0.421875 -1.71875 0.421875 -2.59375 C 0.421875 -3.46875 0.609375 -4.132812 0.984375 -4.59375 C 1.367188 -5.050781 1.921875 -5.28125 2.640625 -5.28125 C 3.171875 -5.28125 3.609375 -5.140625 3.953125 -4.859375 C 4.304688 -4.585938 4.53125 -4.210938 4.625 -3.734375 L 3.734375 -3.671875 C 3.691406 -3.953125 3.578125 -4.175781 3.390625 -4.34375 C 3.210938 -4.519531 2.953125 -4.609375 2.609375 -4.609375 C 2.160156 -4.609375 1.832031 -4.453125 1.625 -4.140625 C 1.414062 -3.835938 1.3125 -3.328125 1.3125 -2.609375 Z M 1.3125 -2.609375 "/>
</g>
<g id="glyph-0-14">
<path d="M 6.546875 0 L 6.546875 -4.5 C 6.546875 -5 6.5625 -5.476562 6.59375 -5.9375 C 6.4375 -5.363281 6.296875 -4.914062 6.171875 -4.59375 L 4.421875 0 L 3.78125 0 L 2.015625 -4.59375 L 1.75 -5.421875 L 1.578125 -5.9375 L 1.59375 -5.40625 L 1.625 -4.5 L 1.625 0 L 0.8125 0 L 0.8125 -6.75 L 2 -6.75 L 3.796875 -2.0625 C 3.867188 -1.875 3.929688 -1.671875 3.984375 -1.453125 C 4.046875 -1.242188 4.085938 -1.09375 4.109375 -1 C 4.128906 -1.125 4.179688 -1.316406 4.265625 -1.578125 C 4.347656 -1.835938 4.40625 -2 4.4375 -2.0625 L 6.1875 -6.75 L 7.375 -6.75 L 7.375 0 Z M 6.546875 0 "/>
</g>
<g id="glyph-0-15">
<path d="M 2.65625 -0.03125 C 2.375 0.0390625 2.082031 0.078125 1.78125 0.078125 C 1.09375 0.078125 0.75 -0.3125 0.75 -1.09375 L 0.75 -4.5625 L 0.15625 -4.5625 L 0.15625 -5.1875 L 0.78125 -5.1875 L 1.03125 -6.34375 L 1.609375 -6.34375 L 1.609375 -5.1875 L 2.5625 -5.1875 L 2.5625 -4.5625 L 1.609375 -4.5625 L 1.609375 -1.28125 C 1.609375 -1.03125 1.648438 -0.851562 1.734375 -0.75 C 1.816406 -0.65625 1.957031 -0.609375 2.15625 -0.609375 C 2.269531 -0.609375 2.4375 -0.628906 2.65625 -0.671875 Z M 2.65625 -0.03125 "/>
</g>
<g id="glyph-0-16">
<path d="M 1.984375 0.09375 C 1.460938 0.09375 1.070312 -0.0390625 0.8125 -0.3125 C 0.550781 -0.59375 0.421875 -0.972656 0.421875 -1.453125 C 0.421875 -1.984375 0.59375 -2.390625 0.9375 -2.671875 C 1.289062 -2.960938 1.863281 -3.117188 2.65625 -3.140625 L 3.8125 -3.15625 L 3.8125 -3.4375 C 3.8125 -3.863281 3.722656 -4.164062 3.546875 -4.34375 C 3.367188 -4.53125 3.085938 -4.625 2.703125 -4.625 C 2.316406 -4.625 2.035156 -4.554688 1.859375 -4.421875 C 1.679688 -4.296875 1.578125 -4.085938 1.546875 -3.796875 L 0.640625 -3.875 C 0.796875 -4.8125 1.488281 -5.28125 2.71875 -5.28125 C 3.375 -5.28125 3.863281 -5.128906 4.1875 -4.828125 C 4.519531 -4.535156 4.6875 -4.101562 4.6875 -3.53125 L 4.6875 -1.296875 C 4.6875 -1.046875 4.71875 -0.851562 4.78125 -0.71875 C 4.851562 -0.59375 4.984375 -0.53125 5.171875 -0.53125 C 5.253906 -0.53125 5.347656 -0.539062 5.453125 -0.5625 L 5.453125 -0.03125 C 5.234375 0.0195312 5.015625 0.046875 4.796875 0.046875 C 4.472656 0.046875 4.238281 -0.0351562 4.09375 -0.203125 C 3.945312 -0.367188 3.863281 -0.628906 3.84375 -0.984375 L 3.8125 -0.984375 C 3.59375 -0.585938 3.335938 -0.304688 3.046875 -0.140625 C 2.753906 0.015625 2.398438 0.09375 1.984375 0.09375 Z M 2.1875 -0.546875 C 2.5 -0.546875 2.773438 -0.617188 3.015625 -0.765625 C 3.265625 -0.910156 3.457031 -1.109375 3.59375 -1.359375 C 3.738281 -1.609375 3.8125 -1.863281 3.8125 -2.125 L 3.8125 -2.5625 L 2.875 -2.546875 C 2.46875 -2.535156 2.160156 -2.488281 1.953125 -2.40625 C 1.742188 -2.332031 1.582031 -2.21875 1.46875 -2.0625 C 1.351562 -1.90625 1.296875 -1.695312 1.296875 -1.4375 C 1.296875 -1.15625 1.375 -0.9375 1.53125 -0.78125 C 1.6875 -0.625 1.90625 -0.546875 2.1875 -0.546875 Z M 2.1875 -0.546875 "/>
</g>
<g id="glyph-0-17">
<path d="M 3.9375 -0.828125 C 3.769531 -0.492188 3.554688 -0.253906 3.296875 -0.109375 C 3.035156 0.0234375 2.707031 0.09375 2.3125 0.09375 C 1.664062 0.09375 1.1875 -0.125 0.875 -0.5625 C 0.5625 -1.007812 0.40625 -1.675781 0.40625 -2.5625 C 0.40625 -4.375 1.039062 -5.28125 2.3125 -5.28125 C 2.707031 -5.28125 3.035156 -5.207031 3.296875 -5.0625 C 3.554688 -4.914062 3.769531 -4.6875 3.9375 -4.375 L 3.9375 -7.109375 L 4.796875 -7.109375 L 4.796875 -1.0625 C 4.796875 -0.53125 4.804688 -0.175781 4.828125 0 L 4 0 C 3.988281 -0.0507812 3.976562 -0.164062 3.96875 -0.34375 C 3.957031 -0.53125 3.953125 -0.691406 3.953125 -0.828125 Z M 1.3125 -2.59375 C 1.3125 -1.875 1.40625 -1.351562 1.59375 -1.03125 C 1.789062 -0.71875 2.109375 -0.5625 2.546875 -0.5625 C 3.023438 -0.5625 3.375 -0.726562 3.59375 -1.0625 C 3.820312 -1.40625 3.9375 -1.9375 3.9375 -2.65625 C 3.9375 -3.34375 3.820312 -3.84375 3.59375 -4.15625 C 3.375 -4.476562 3.023438 -4.640625 2.546875 -4.640625 C 2.109375 -4.640625 1.789062 -4.476562 1.59375 -4.15625 C 1.40625 -3.84375 1.3125 -3.320312 1.3125 -2.59375 Z M 1.3125 -2.59375 "/>
</g>
</g>
</defs>
<rect x="-7.9" y="-6.4" width="94.8" height="76.8" fill="rgb(100%, 100%, 100%)" fill-opacity="1"/>
<path fill-rule="evenodd" fill="rgb(100%, 100%, 79.998779%)" fill-opacity="1" stroke-width="0.1" stroke-linecap="butt" stroke-linejoin="miter" stroke="rgb(59.999084%, 0%, 19.999695%)" stroke-opacity="1" stroke-miterlimit="10" d="M 339.476562 416.609375 L 339.476562 417.601562 L 339.164062 418.253906 L 339.164062 419.242188 L 338.824219 419.894531 L 338.511719 420.886719 L 337.859375 421.570312 L 337.550781 422.5625 L 336.898438 423.214844 L 335.90625 423.863281 L 335.28125 424.855469 L 334.289062 425.535156 L 333.324219 426.1875 L 332.363281 426.839844 L 331.371094 427.519531 L 330.09375 428.171875 L 329.101562 428.824219 L 327.828125 429.507812 L 326.523438 429.816406 L 324.90625 430.496094 L 323.601562 430.808594 L 321.988281 431.488281 L 320.683594 431.800781 L 319.066406 432.140625 L 317.453125 432.480469 L 315.835938 432.792969 L 314.191406 432.792969 L 312.574219 433.132812 L 310.960938 433.132812 L 309.34375 433.472656 L 302.203125 433.472656 L 300.585938 433.132812 L 298.96875 433.132812 L 297.355469 432.792969 L 295.738281 432.792969 L 294.121094 432.480469 L 292.480469 432.140625 L 290.863281 431.800781 L 289.585938 431.488281 L 287.941406 430.808594 L 286.667969 430.496094 L 285.023438 429.816406 L 283.746094 429.507812 L 282.445312 428.824219 L 281.480469 428.171875 L 280.175781 427.519531 L 279.214844 426.839844 L 278.21875 426.1875 L 277.257812 425.535156 L 276.292969 424.855469 L 275.640625 423.863281 L 274.675781 423.214844 L 274.023438 422.5625 L 273.683594 421.570312 L 273.03125 420.886719 L 272.722656 419.894531 L 272.410156 419.242188 L 272.410156 418.253906 L 272.070312 417.601562 L 272.070312 415.617188 L 272.410156 414.933594 L 272.410156 413.941406 L 272.722656 413.289062 L 273.03125 412.300781 L 273.683594 411.648438 L 274.023438 410.65625 L 274.675781 409.976562 L 275.640625 409.324219 L 276.292969 408.332031 L 277.257812 407.679688 L 278.21875 406.996094 L 279.214844 406.347656 L 280.175781 405.695312 L 281.480469 405.015625 L 282.445312 404.363281 L 283.746094 403.710938 L 285.023438 403.371094 L 286.667969 402.71875 L 287.941406 402.378906 L 289.585938 401.726562 L 290.863281 401.386719 L 292.480469 401.046875 L 294.121094 400.734375 L 295.738281 400.394531 L 297.355469 400.394531 L 298.96875 400.054688 L 300.585938 400.054688 L 302.203125 399.742188 L 309.34375 399.742188 L 310.960938 400.054688 L 312.574219 400.054688 L 314.191406 400.394531 L 315.835938 400.394531 L 317.453125 400.734375 L 319.066406 401.046875 L 320.683594 401.386719 L 321.988281 401.726562 L 323.601562 402.378906 L 324.90625 402.71875 L 326.523438 403.371094 L 327.828125 403.710938 L 329.101562 404.363281 L 330.09375 405.015625 L 331.371094 405.695312 L 332.363281 406.347656 L 333.324219 406.996094 L 334.289062 407.679688 L 335.28125 408.332031 L 335.90625 409.324219 L 336.898438 409.976562 L 337.550781 410.65625 L 337.859375 411.648438 L 338.511719 412.300781 L 338.824219 413.289062 L 339.164062 413.941406 L 339.164062 414.933594 L 339.476562 415.617188 Z M 339.476562 416.609375 " transform="matrix(1, 0, 0, -1, -265, 434)"/>
<g fill="rgb(0%, 0%, 0%)" fill-opacity="1">
<use xlink:href="#glyph-0-0" x="0.039" y="51.096"/>
</g>
<g fill="rgb(0%, 0%, 0%)" fill-opacity="1">
<use xlink:href="#glyph-0-1" x="6.75748" y="51.096"/>
</g>
<g fill="rgb(0%, 0%, 0%)" fill-opacity="1">
<use xlink:href="#glyph-0-2" x="12.034184" y="51.096"/>
</g>
<g fill="rgb(0%, 0%, 0%)" fill-opacity="1">
<use xlink:href="#glyph-0-3" x="17.310888" y="51.096"/>
</g>
<g fill="rgb(0%, 0%, 0%)" fill-opacity="1">
<use xlink:href="#glyph-0-4" x="19.468648" y="51.096"/>
</g>
<g fill="rgb(0%, 0%, 0%)" fill-opacity="1">
<use xlink:href="#glyph-0-5" x="21.842184" y="51.096"/>
</g>
<g fill="rgb(0%, 0%, 0%)" fill-opacity="1">
<use xlink:href="#glyph-0-6" x="27.10908" y="51.096"/>
</g>
<g fill="rgb(0%, 0%, 0%)" fill-opacity="1">
<use xlink:href="#glyph-0-7" x="32.1602" y="51.096"/>
</g>
<g fill="rgb(0%, 0%, 0%)" fill-opacity="1">
<use xlink:href="#glyph-0-8" x="35.239912" y="51.096"/>
</g>
<g fill="rgb(0%, 0%, 0%)" fill-opacity="1">
<use xlink:href="#glyph-0-9" x="41.9682" y="51.096"/>
</g>
<g fill="rgb(0%, 0%, 0%)" fill-opacity="1">
<use xlink:href="#glyph-0-10" x="47.244904" y="51.096"/>
</g>
<g fill="rgb(0%, 0%, 0%)" fill-opacity="1">
<use xlink:href="#glyph-0-9" x="49.402664" y="51.096"/>
</g>
<g fill="rgb(0%, 0%, 0%)" fill-opacity="1">
<use xlink:href="#glyph-0-11" x="54.679368" y="51.096"/>
</g>
<g fill="rgb(0%, 0%, 0%)" fill-opacity="1">
<use xlink:href="#glyph-0-9" x="57.798312" y="51.096"/>
</g>
<g fill="rgb(0%, 0%, 0%)" fill-opacity="1">
<use xlink:href="#glyph-0-12" x="63.075016" y="51.096"/>
</g>
<g fill="rgb(0%, 0%, 0%)" fill-opacity="1">
<use xlink:href="#glyph-0-13" x="68.35172" y="51.096"/>
</g>
<g fill="rgb(0%, 0%, 0%)" fill-opacity="1">
<use xlink:href="#glyph-0-9" x="73.618616" y="51.096"/>
</g>
<g fill="rgb(0%, 0%, 0%)" fill-opacity="1">
<use xlink:href="#glyph-0-7" x="78.640312" y="51.096"/>
</g>
<g fill="rgb(0%, 0%, 0%)" fill-opacity="1">
<use xlink:href="#glyph-0-14" x="20.647" y="63.002"/>
</g>
<g fill="rgb(0%, 0%, 0%)" fill-opacity="1">
<use xlink:href="#glyph-0-9" x="28.78764" y="63.002"/>
</g>
<g fill="rgb(0%, 0%, 0%)" fill-opacity="1">
<use xlink:href="#glyph-0-15" x="34.064344" y="63.002"/>
</g>
<g fill="rgb(0%, 0%, 0%)" fill-opacity="1">
<use xlink:href="#glyph-0-16" x="37.17348" y="63.002"/>
</g>
<g fill="rgb(0%, 0%, 0%)" fill-opacity="1">
<use xlink:href="#glyph-0-17" x="42.450184" y="63.002"/>
</g>
<g fill="rgb(0%, 0%, 0%)" fill-opacity="1">
<use xlink:href="#glyph-0-16" x="47.726888" y="63.002"/>
</g>
<g fill="rgb(0%, 0%, 0%)" fill-opacity="1">
<use xlink:href="#glyph-0-15" x="52.778008" y="63.002"/>
</g>
<g fill="rgb(0%, 0%, 0%)" fill-opacity="1">
<use xlink:href="#glyph-0-16" x="55.85772" y="63.002"/>
</g>
</svg>
