<?xml version="1.0" encoding="UTF-8"?>
<svg xmlns="http://www.w3.org/2000/svg" xmlns:xlink="http://www.w3.org/1999/xlink" width="276" height="178" viewBox="0 0 276 178">
<defs>
<g>
<g id="glyph-0-0">
<path d="M 5.65625 -2.953125 C 5.65625 -2.347656 5.539062 -1.820312 5.3125 -1.375 C 5.082031 -0.9375 4.753906 -0.597656 4.328125 -0.359375 C 3.898438 -0.117188 3.40625 0 2.84375 0 L 0.6875 0 L 0.6875 -5.765625 L 2.59375 -5.765625 C 3.570312 -5.765625 4.328125 -5.519531 4.859375 -5.03125 C 5.390625 -4.539062 5.65625 -3.847656 5.65625 -2.953125 Z M 4.875 -2.953125 C 4.875 -3.660156 4.675781 -4.203125 4.28125 -4.578125 C 3.894531 -4.953125 3.328125 -5.140625 2.578125 -5.140625 L 1.46875 -5.140625 L 1.46875 -0.625 L 2.75 -0.625 C 3.175781 -0.625 3.550781 -0.71875 3.875 -0.90625 C 4.195312 -1.09375 4.441406 -1.359375 4.609375 -1.703125 C 4.785156 -2.054688 4.875 -2.472656 4.875 -2.953125 Z M 4.875 -2.953125 "/>
</g>
<g id="glyph-0-1">
<path d="M 1.703125 0.078125 C 1.253906 0.078125 0.914062 -0.0351562 0.6875 -0.265625 C 0.46875 -0.503906 0.359375 -0.828125 0.359375 -1.234375 C 0.359375 -1.691406 0.507812 -2.039062 0.8125 -2.28125 C 1.113281 -2.53125 1.597656 -2.664062 2.265625 -2.6875 L 3.265625 -2.703125 L 3.265625 -2.953125 C 3.265625 -3.304688 3.1875 -3.5625 3.03125 -3.71875 C 2.882812 -3.875 2.644531 -3.953125 2.3125 -3.953125 C 1.976562 -3.953125 1.738281 -3.894531 1.59375 -3.78125 C 1.445312 -3.675781 1.359375 -3.5 1.328125 -3.25 L 0.546875 -3.3125 C 0.671875 -4.113281 1.265625 -4.515625 2.328125 -4.515625 C 2.890625 -4.515625 3.3125 -4.382812 3.59375 -4.125 C 3.875 -3.875 4.015625 -3.507812 4.015625 -3.03125 L 4.015625 -1.109375 C 4.015625 -0.890625 4.039062 -0.722656 4.09375 -0.609375 C 4.15625 -0.503906 4.265625 -0.453125 4.421875 -0.453125 C 4.492188 -0.453125 4.578125 -0.460938 4.671875 -0.484375 L 4.671875 -0.03125 C 4.484375 0.0195312 4.289062 0.046875 4.09375 0.046875 C 3.820312 0.046875 3.625 -0.0234375 3.5 -0.171875 C 3.375 -0.316406 3.304688 -0.539062 3.296875 -0.84375 L 3.265625 -0.84375 C 3.078125 -0.507812 2.859375 -0.269531 2.609375 -0.125 C 2.359375 0.0078125 2.054688 0.078125 1.703125 0.078125 Z M 1.859375 -0.46875 C 2.128906 -0.46875 2.367188 -0.53125 2.578125 -0.65625 C 2.796875 -0.78125 2.960938 -0.945312 3.078125 -1.15625 C 3.203125 -1.375 3.265625 -1.597656 3.265625 -1.828125 L 3.265625 -2.1875 L 2.453125 -2.171875 C 2.109375 -2.160156 1.847656 -2.125 1.671875 -2.0625 C 1.492188 -2 1.351562 -1.898438 1.25 -1.765625 C 1.15625 -1.628906 1.109375 -1.445312 1.109375 -1.21875 C 1.109375 -0.976562 1.171875 -0.789062 1.296875 -0.65625 C 1.429688 -0.53125 1.617188 -0.46875 1.859375 -0.46875 Z M 1.859375 -0.46875 "/>
</g>
<g id="glyph-0-2">
<path d="M 2.265625 -0.03125 C 2.023438 0.03125 1.78125 0.0625 1.53125 0.0625 C 0.9375 0.0625 0.640625 -0.269531 0.640625 -0.9375 L 0.640625 -3.890625 L 0.125 -3.890625 L 0.125 -4.4375 L 0.671875 -4.4375 L 0.890625 -5.421875 L 1.375 -5.421875 L 1.375 -4.4375 L 2.203125 -4.4375 L 2.203125 -3.890625 L 1.375 -3.890625 L 1.375 -1.09375 C 1.375 -0.882812 1.40625 -0.734375 1.46875 -0.640625 C 1.539062 -0.554688 1.664062 -0.515625 1.84375 -0.515625 C 1.9375 -0.515625 2.078125 -0.535156 2.265625 -0.578125 Z M 2.265625 -0.03125 "/>
</g>
<g id="glyph-0-3">
</g>
<g id="glyph-0-4">
<path d="M 3.25 -5.21875 C 2.601562 -5.21875 2.101562 -5.007812 1.75 -4.59375 C 1.394531 -4.1875 1.21875 -3.625 1.21875 -2.90625 C 1.21875 -2.207031 1.398438 -1.640625 1.765625 -1.203125 C 2.140625 -0.773438 2.644531 -0.5625 3.28125 -0.5625 C 4.082031 -0.5625 4.6875 -0.960938 5.09375 -1.765625 L 5.734375 -1.4375 C 5.503906 -0.945312 5.171875 -0.570312 4.734375 -0.3125 C 4.304688 -0.0507812 3.804688 0.078125 3.234375 0.078125 C 2.660156 0.078125 2.160156 -0.0390625 1.734375 -0.28125 C 1.304688 -0.519531 0.976562 -0.863281 0.75 -1.3125 C 0.53125 -1.757812 0.421875 -2.289062 0.421875 -2.90625 C 0.421875 -3.832031 0.671875 -4.554688 1.171875 -5.078125 C 1.671875 -5.597656 2.359375 -5.859375 3.234375 -5.859375 C 3.847656 -5.859375 4.359375 -5.738281 4.765625 -5.5 C 5.179688 -5.257812 5.488281 -4.898438 5.6875 -4.421875 L 4.9375 -4.1875 C 4.8125 -4.519531 4.597656 -4.773438 4.296875 -4.953125 C 4.003906 -5.128906 3.65625 -5.21875 3.25 -5.21875 Z M 3.25 -5.21875 "/>
</g>
<g id="glyph-0-5">
<path d="M 4.3125 -2.21875 C 4.3125 -1.445312 4.140625 -0.867188 3.796875 -0.484375 C 3.460938 -0.109375 2.96875 0.078125 2.3125 0.078125 C 1.664062 0.078125 1.175781 -0.117188 0.84375 -0.515625 C 0.519531 -0.910156 0.359375 -1.476562 0.359375 -2.21875 C 0.359375 -3.75 1.019531 -4.515625 2.34375 -4.515625 C 3.019531 -4.515625 3.515625 -4.328125 3.828125 -3.953125 C 4.148438 -3.578125 4.3125 -3 4.3125 -2.21875 Z M 3.546875 -2.21875 C 3.546875 -2.832031 3.453125 -3.273438 3.265625 -3.546875 C 3.085938 -3.828125 2.785156 -3.96875 2.359375 -3.96875 C 1.921875 -3.96875 1.601562 -3.828125 1.40625 -3.546875 C 1.21875 -3.265625 1.125 -2.820312 1.125 -2.21875 C 1.125 -1.632812 1.21875 -1.195312 1.40625 -0.90625 C 1.601562 -0.613281 1.90625 -0.46875 2.3125 -0.46875 C 2.75 -0.46875 3.0625 -0.609375 3.25 -0.890625 C 3.445312 -1.171875 3.546875 -1.613281 3.546875 -2.21875 Z M 3.546875 -2.21875 "/>
</g>
<g id="glyph-0-6">
<path d="M 3.375 0 L 3.375 -2.8125 C 3.375 -3.101562 3.34375 -3.328125 3.28125 -3.484375 C 3.226562 -3.648438 3.140625 -3.769531 3.015625 -3.84375 C 2.890625 -3.914062 2.707031 -3.953125 2.46875 -3.953125 C 2.113281 -3.953125 1.832031 -3.828125 1.625 -3.578125 C 1.414062 -3.335938 1.3125 -3 1.3125 -2.5625 L 1.3125 0 L 0.578125 0 L 0.578125 -3.484375 C 0.578125 -4.003906 0.570312 -4.320312 0.5625 -4.4375 L 1.25 -4.4375 C 1.25 -4.414062 1.25 -4.375 1.25 -4.3125 C 1.257812 -4.257812 1.265625 -4.191406 1.265625 -4.109375 C 1.273438 -4.035156 1.28125 -3.890625 1.28125 -3.671875 L 1.296875 -3.671875 C 1.460938 -3.984375 1.65625 -4.203125 1.875 -4.328125 C 2.101562 -4.453125 2.382812 -4.515625 2.71875 -4.515625 C 3.207031 -4.515625 3.5625 -4.394531 3.78125 -4.15625 C 4.007812 -3.914062 4.125 -3.515625 4.125 -2.953125 L 4.125 0 Z M 3.375 0 "/>
</g>
<g id="glyph-0-7">
<path d="M 3.890625 -1.21875 C 3.890625 -0.800781 3.734375 -0.476562 3.421875 -0.25 C 3.109375 -0.03125 2.664062 0.078125 2.09375 0.078125 C 1.539062 0.078125 1.113281 -0.0078125 0.8125 -0.1875 C 0.519531 -0.375 0.328125 -0.660156 0.234375 -1.046875 L 0.890625 -1.171875 C 0.953125 -0.929688 1.078125 -0.753906 1.265625 -0.640625 C 1.460938 -0.535156 1.738281 -0.484375 2.09375 -0.484375 C 2.46875 -0.484375 2.738281 -0.539062 2.90625 -0.65625 C 3.082031 -0.769531 3.171875 -0.941406 3.171875 -1.171875 C 3.171875 -1.347656 3.109375 -1.488281 2.984375 -1.59375 C 2.867188 -1.695312 2.675781 -1.785156 2.40625 -1.859375 L 1.890625 -2 C 1.460938 -2.113281 1.160156 -2.222656 0.984375 -2.328125 C 0.804688 -2.429688 0.664062 -2.554688 0.5625 -2.703125 C 0.457031 -2.859375 0.40625 -3.046875 0.40625 -3.265625 C 0.40625 -3.671875 0.550781 -3.976562 0.84375 -4.1875 C 1.132812 -4.394531 1.554688 -4.5 2.109375 -4.5 C 2.585938 -4.5 2.972656 -4.410156 3.265625 -4.234375 C 3.554688 -4.066406 3.738281 -3.796875 3.8125 -3.421875 L 3.15625 -3.328125 C 3.113281 -3.523438 3 -3.675781 2.8125 -3.78125 C 2.632812 -3.894531 2.398438 -3.953125 2.109375 -3.953125 C 1.773438 -3.953125 1.523438 -3.898438 1.359375 -3.796875 C 1.203125 -3.691406 1.125 -3.535156 1.125 -3.328125 C 1.125 -3.203125 1.15625 -3.097656 1.21875 -3.015625 C 1.289062 -2.941406 1.390625 -2.875 1.515625 -2.8125 C 1.640625 -2.757812 1.910156 -2.679688 2.328125 -2.578125 C 2.710938 -2.472656 2.988281 -2.378906 3.15625 -2.296875 C 3.332031 -2.210938 3.472656 -2.117188 3.578125 -2.015625 C 3.679688 -1.921875 3.757812 -1.804688 3.8125 -1.671875 C 3.863281 -1.546875 3.890625 -1.394531 3.890625 -1.21875 Z M 3.890625 -1.21875 "/>
</g>
<g id="glyph-0-8">
<path d="M 1.28125 -4.4375 L 1.28125 -1.625 C 1.28125 -1.332031 1.304688 -1.101562 1.359375 -0.9375 C 1.421875 -0.78125 1.515625 -0.664062 1.640625 -0.59375 C 1.765625 -0.519531 1.953125 -0.484375 2.203125 -0.484375 C 2.554688 -0.484375 2.832031 -0.601562 3.03125 -0.84375 C 3.238281 -1.09375 3.34375 -1.429688 3.34375 -1.859375 L 3.34375 -4.4375 L 4.078125 -4.4375 L 4.078125 -0.953125 C 4.078125 -0.429688 4.085938 -0.113281 4.109375 0 L 3.40625 0 C 3.40625 -0.0078125 3.40625 -0.046875 3.40625 -0.109375 C 3.40625 -0.171875 3.398438 -0.238281 3.390625 -0.3125 C 3.390625 -0.394531 3.382812 -0.546875 3.375 -0.765625 C 3.195312 -0.453125 3 -0.234375 2.78125 -0.109375 C 2.5625 0.015625 2.285156 0.078125 1.953125 0.078125 C 1.460938 0.078125 1.101562 -0.0390625 0.875 -0.28125 C 0.65625 -0.519531 0.546875 -0.921875 0.546875 -1.484375 L 0.546875 -4.4375 Z M 1.28125 -4.4375 "/>
</g>
<g id="glyph-0-9">
<path d="M 3.140625 0 L 3.140625 -2.8125 C 3.140625 -3.238281 3.082031 -3.535156 2.96875 -3.703125 C 2.851562 -3.867188 2.640625 -3.953125 2.328125 -3.953125 C 2.015625 -3.953125 1.765625 -3.828125 1.578125 -3.578125 C 1.398438 -3.335938 1.3125 -3 1.3125 -2.5625 L 1.3125 0 L 0.578125 0 L 0.578125 -3.484375 C 0.578125 -4.003906 0.570312 -4.320312 0.5625 -4.4375 L 1.25 -4.4375 C 1.25 -4.414062 1.25 -4.375 1.25 -4.3125 C 1.257812 -4.257812 1.265625 -4.191406 1.265625 -4.109375 C 1.273438 -4.035156 1.28125 -3.890625 1.28125 -3.671875 L 1.296875 -3.671875 C 1.453125 -3.984375 1.632812 -4.203125 1.84375 -4.328125 C 2.050781 -4.453125 2.300781 -4.515625 2.59375 -4.515625 C 2.925781 -4.515625 3.191406 -4.445312 3.390625 -4.3125 C 3.585938 -4.175781 3.722656 -3.960938 3.796875 -3.671875 L 3.8125 -3.671875 C 3.96875 -3.972656 4.148438 -4.1875 4.359375 -4.3125 C 4.578125 -4.445312 4.84375 -4.515625 5.15625 -4.515625 C 5.601562 -4.515625 5.925781 -4.390625 6.125 -4.140625 C 6.332031 -3.898438 6.4375 -3.503906 6.4375 -2.953125 L 6.4375 0 L 5.703125 0 L 5.703125 -2.8125 C 5.703125 -3.238281 5.644531 -3.535156 5.53125 -3.703125 C 5.414062 -3.867188 5.203125 -3.953125 4.890625 -3.953125 C 4.566406 -3.953125 4.316406 -3.832031 4.140625 -3.59375 C 3.960938 -3.351562 3.875 -3.007812 3.875 -2.5625 L 3.875 0 Z M 3.140625 0 "/>
</g>
<g id="glyph-0-10">
<path d="M 1.125 -2.0625 C 1.125 -1.550781 1.226562 -1.15625 1.4375 -0.875 C 1.65625 -0.601562 1.96875 -0.46875 2.375 -0.46875 C 2.6875 -0.46875 2.9375 -0.53125 3.125 -0.65625 C 3.320312 -0.789062 3.457031 -0.957031 3.53125 -1.15625 L 4.171875 -0.96875 C 3.910156 -0.269531 3.3125 0.078125 2.375 0.078125 C 1.71875 0.078125 1.21875 -0.113281 0.875 -0.5 C 0.53125 -0.894531 0.359375 -1.476562 0.359375 -2.25 C 0.359375 -2.976562 0.53125 -3.535156 0.875 -3.921875 C 1.21875 -4.316406 1.707031 -4.515625 2.34375 -4.515625 C 3.644531 -4.515625 4.296875 -3.726562 4.296875 -2.15625 L 4.296875 -2.0625 Z M 3.53125 -2.625 C 3.488281 -3.09375 3.367188 -3.429688 3.171875 -3.640625 C 2.972656 -3.859375 2.691406 -3.96875 2.328125 -3.96875 C 1.972656 -3.96875 1.6875 -3.847656 1.46875 -3.609375 C 1.257812 -3.367188 1.148438 -3.039062 1.140625 -2.625 Z M 3.53125 -2.625 "/>
</g>
<g id="glyph-0-11">
<path d="M 0.578125 0 L 0.578125 -3.40625 C 0.578125 -3.71875 0.570312 -4.0625 0.5625 -4.4375 L 1.25 -4.4375 C 1.269531 -3.925781 1.28125 -3.625 1.28125 -3.53125 L 1.296875 -3.53125 C 1.421875 -3.90625 1.554688 -4.160156 1.703125 -4.296875 C 1.859375 -4.441406 2.078125 -4.515625 2.359375 -4.515625 C 2.453125 -4.515625 2.550781 -4.5 2.65625 -4.46875 L 2.65625 -3.796875 C 2.550781 -3.828125 2.421875 -3.84375 2.265625 -3.84375 C 1.953125 -3.84375 1.710938 -3.707031 1.546875 -3.4375 C 1.390625 -3.175781 1.3125 -2.800781 1.3125 -2.3125 L 1.3125 0 Z M 0.578125 0 "/>
</g>
<g id="glyph-0-12">
<path d="M 5.59375 0 L 5.59375 -3.84375 C 5.59375 -4.269531 5.609375 -4.679688 5.640625 -5.078125 C 5.503906 -4.585938 5.378906 -4.207031 5.265625 -3.9375 L 3.78125 0 L 3.234375 0 L 1.71875 -3.9375 L 1.484375 -4.625 L 1.359375 -5.078125 L 1.375 -4.625 L 1.390625 -3.84375 L 1.390625 0 L 0.6875 0 L 0.6875 -5.765625 L 1.71875 -5.765625 L 3.25 -1.765625 C 3.300781 -1.609375 3.351562 -1.4375 3.40625 -1.25 C 3.457031 -1.0625 3.492188 -0.929688 3.515625 -0.859375 C 3.535156 -0.960938 3.578125 -1.125 3.640625 -1.34375 C 3.710938 -1.570312 3.765625 -1.710938 3.796875 -1.765625 L 5.296875 -5.765625 L 6.296875 -5.765625 L 6.296875 0 Z M 5.59375 0 "/>
</g>
<g id="glyph-0-13">
<path d="M 3.359375 -0.71875 C 3.222656 -0.425781 3.039062 -0.21875 2.8125 -0.09375 C 2.59375 0.0195312 2.316406 0.078125 1.984375 0.078125 C 1.421875 0.078125 1.007812 -0.109375 0.75 -0.484375 C 0.488281 -0.859375 0.359375 -1.429688 0.359375 -2.203125 C 0.359375 -3.742188 0.898438 -4.515625 1.984375 -4.515625 C 2.316406 -4.515625 2.59375 -4.453125 2.8125 -4.328125 C 3.039062 -4.203125 3.222656 -4.007812 3.359375 -3.75 L 3.375 -3.75 L 3.359375 -4.234375 L 3.359375 -6.078125 L 4.09375 -6.078125 L 4.09375 -0.90625 C 4.09375 -0.445312 4.101562 -0.144531 4.125 0 L 3.421875 0 C 3.410156 -0.0390625 3.398438 -0.140625 3.390625 -0.296875 C 3.378906 -0.460938 3.375 -0.601562 3.375 -0.71875 Z M 1.125 -2.21875 C 1.125 -1.601562 1.207031 -1.160156 1.375 -0.890625 C 1.539062 -0.617188 1.804688 -0.484375 2.171875 -0.484375 C 2.585938 -0.484375 2.890625 -0.628906 3.078125 -0.921875 C 3.265625 -1.210938 3.359375 -1.660156 3.359375 -2.265625 C 3.359375 -2.859375 3.265625 -3.289062 3.078125 -3.5625 C 2.890625 -3.832031 2.585938 -3.96875 2.171875 -3.96875 C 1.804688 -3.96875 1.539062 -3.828125 1.375 -3.546875 C 1.207031 -3.273438 1.125 -2.832031 1.125 -2.21875 Z M 1.125 -2.21875 "/>
</g>
<g id="glyph-0-14">
<path d="M 3 0.078125 C 2.519531 0.078125 2.101562 -0.00390625 1.75 -0.171875 C 1.40625 -0.347656 1.132812 -0.597656 0.9375 -0.921875 C 0.738281 -1.253906 0.640625 -1.644531 0.640625 -2.09375 L 0.640625 -5.765625 L 1.4375 -5.765625 L 1.4375 -2.15625 C 1.4375 -1.632812 1.566406 -1.234375 1.828125 -0.953125 C 2.097656 -0.679688 2.484375 -0.546875 2.984375 -0.546875 C 3.503906 -0.546875 3.910156 -0.6875 4.203125 -0.96875 C 4.492188 -1.257812 4.640625 -1.675781 4.640625 -2.21875 L 4.640625 -5.765625 L 5.40625 -5.765625 L 5.40625 -2.171875 C 5.40625 -1.703125 5.304688 -1.296875 5.109375 -0.953125 C 4.910156 -0.617188 4.628906 -0.363281 4.265625 -0.1875 C 3.910156 -0.0078125 3.488281 0.078125 3 0.078125 Z M 3 0.078125 "/>
</g>
<g id="glyph-0-15">
<path d="M 4.765625 0 L 3.265625 -2.390625 L 1.46875 -2.390625 L 1.46875 0 L 0.6875 0 L 0.6875 -5.765625 L 3.40625 -5.765625 C 4.050781 -5.765625 4.550781 -5.617188 4.90625 -5.328125 C 5.257812 -5.046875 5.4375 -4.644531 5.4375 -4.125 C 5.4375 -3.695312 5.3125 -3.335938 5.0625 -3.046875 C 4.8125 -2.753906 4.46875 -2.566406 4.03125 -2.484375 L 5.671875 0 Z M 4.65625 -4.109375 C 4.65625 -4.453125 4.539062 -4.707031 4.3125 -4.875 C 4.082031 -5.050781 3.753906 -5.140625 3.328125 -5.140625 L 1.46875 -5.140625 L 1.46875 -3.015625 L 3.359375 -3.015625 C 3.773438 -3.015625 4.09375 -3.109375 4.3125 -3.296875 C 4.539062 -3.492188 4.65625 -3.765625 4.65625 -4.109375 Z M 4.65625 -4.109375 "/>
</g>
<g id="glyph-0-16">
<path d="M 1.484375 -3.890625 L 1.484375 0 L 0.734375 0 L 0.734375 -3.890625 L 0.125 -3.890625 L 0.125 -4.4375 L 0.734375 -4.4375 L 0.734375 -4.9375 C 0.734375 -5.34375 0.820312 -5.632812 1 -5.8125 C 1.1875 -5.988281 1.460938 -6.078125 1.828125 -6.078125 C 2.023438 -6.078125 2.195312 -6.054688 2.34375 -6.015625 L 2.34375 -5.46875 C 2.21875 -5.488281 2.109375 -5.5 2.015625 -5.5 C 1.828125 -5.5 1.691406 -5.445312 1.609375 -5.34375 C 1.523438 -5.25 1.484375 -5.078125 1.484375 -4.828125 L 1.484375 -4.4375 L 2.34375 -4.4375 L 2.34375 -3.890625 Z M 1.484375 -3.890625 "/>
</g>
<g id="glyph-0-17">
<path d="M 1.125 -2.234375 C 1.125 -1.648438 1.21875 -1.210938 1.40625 -0.921875 C 1.59375 -0.640625 1.875 -0.5 2.25 -0.5 C 2.507812 -0.5 2.726562 -0.566406 2.90625 -0.703125 C 3.082031 -0.847656 3.191406 -1.070312 3.234375 -1.375 L 3.96875 -1.3125 C 3.914062 -0.894531 3.734375 -0.554688 3.421875 -0.296875 C 3.117188 -0.046875 2.734375 0.078125 2.265625 0.078125 C 1.640625 0.078125 1.164062 -0.113281 0.84375 -0.5 C 0.519531 -0.894531 0.359375 -1.46875 0.359375 -2.21875 C 0.359375 -2.96875 0.519531 -3.535156 0.84375 -3.921875 C 1.175781 -4.316406 1.644531 -4.515625 2.25 -4.515625 C 2.707031 -4.515625 3.082031 -4.394531 3.375 -4.15625 C 3.675781 -3.925781 3.867188 -3.601562 3.953125 -3.1875 L 3.1875 -3.140625 C 3.15625 -3.378906 3.0625 -3.570312 2.90625 -3.71875 C 2.75 -3.863281 2.523438 -3.9375 2.234375 -3.9375 C 1.847656 -3.9375 1.566406 -3.804688 1.390625 -3.546875 C 1.210938 -3.285156 1.125 -2.847656 1.125 -2.234375 Z M 1.125 -2.234375 "/>
</g>
<g id="glyph-0-18">
<path d="M 0.40625 -2.34375 L 0.40625 -3.171875 L 4.484375 -4.890625 L 4.484375 -4.265625 L 0.96875 -2.765625 L 4.484375 -1.25 L 4.484375 -0.625 Z M 0.40625 -2.34375 "/>
</g>
<g id="glyph-0-19">
<path d="M 3.28125 0 L 2.09375 -1.8125 L 0.890625 0 L 0.09375 0 L 1.671875 -2.28125 L 0.171875 -4.4375 L 0.984375 -4.4375 L 2.09375 -2.703125 L 3.1875 -4.4375 L 4.015625 -4.4375 L 2.5 -2.28125 L 4.109375 0 Z M 3.28125 0 "/>
</g>
<g id="glyph-0-20">
<path d="M 0.40625 -0.625 L 0.40625 -1.25 L 3.921875 -2.765625 L 0.40625 -4.265625 L 0.40625 -4.890625 L 4.484375 -3.171875 L 4.484375 -2.34375 Z M 0.40625 -0.625 "/>
</g>
</g>
</defs>
<rect x="-27.6" y="-17.8" width="331.2" height="213.6" fill="rgb(100%, 100%, 100%)" fill-opacity="1"/>
<path fill="none" stroke-width="0.1" stroke-linecap="butt" stroke-linejoin="miter" stroke="rgb(59.999084%, 0%, 19.999695%)" stroke-opacity="1" stroke-miterlimit="10" d="M 112.394531 486.453125 L 112.394531 487.332031 L 112.167969 487.53125 L 112.167969 488.183594 L 111.96875 488.410156 L 111.96875 488.835938 L 111.742188 489.03125 L 111.515625 489.261719 L 111.515625 489.457031 L 111.316406 489.683594 L 111.089844 489.910156 L 111.089844 490.109375 L 110.863281 490.109375 L 110.636719 490.335938 L 110.636719 490.535156 L 110.4375 490.535156 L 109.984375 490.988281 L 109.757812 490.988281 L 109.332031 491.414062 L 108.90625 491.414062 L 108.679688 491.613281 L 108.027344 491.613281 L 107.800781 491.839844 L 106.042969 491.839844 L 105.816406 491.613281 L 105.164062 491.613281 L 104.96875 491.414062 L 104.511719 491.414062 L 104.285156 491.1875 L 104.089844 490.988281 L 103.859375 490.988281 L 103.636719 490.761719 L 103.40625 490.535156 L 103.210938 490.535156 L 103.210938 490.335938 L 102.984375 490.109375 L 102.757812 490.109375 L 102.757812 489.910156 L 102.558594 489.683594 L 102.332031 489.457031 L 102.332031 489.261719 L 102.105469 489.03125 L 101.878906 488.835938 L 101.878906 488.410156 L 101.679688 488.183594 L 101.679688 487.53125 L 101.453125 487.332031 L 101.453125 485.601562 L 101.679688 485.375 L 101.679688 484.753906 L 101.878906 484.527344 L 101.878906 484.101562 L 102.105469 483.875 L 102.332031 483.675781 L 102.332031 483.449219 L 102.558594 483.25 L 102.757812 483.023438 L 102.757812 482.796875 L 102.984375 482.796875 L 103.210938 482.597656 L 103.210938 482.371094 L 103.40625 482.371094 L 103.636719 482.171875 L 103.859375 481.945312 L 104.089844 481.945312 L 104.285156 481.71875 L 104.511719 481.519531 L 104.96875 481.519531 L 105.164062 481.292969 L 105.816406 481.292969 L 106.042969 481.097656 L 107.800781 481.097656 L 108.027344 481.292969 L 108.679688 481.292969 L 108.90625 481.519531 L 109.332031 481.519531 L 109.558594 481.71875 L 109.757812 481.945312 L 109.984375 481.945312 L 110.210938 482.171875 L 110.4375 482.371094 L 110.636719 482.371094 L 110.636719 482.597656 L 110.863281 482.796875 L 111.089844 482.796875 L 111.089844 483.023438 L 111.515625 483.449219 L 111.515625 483.675781 L 111.742188 483.875 L 111.96875 484.101562 L 111.96875 484.527344 L 112.167969 484.753906 L 112.167969 485.375 L 112.394531 485.601562 Z M 112.394531 486.453125 " transform="matrix(1, 0, 0, -1, -78, 492)"/>
<path fill="none" stroke-width="0.1" stroke-linecap="butt" stroke-linejoin="miter" stroke="rgb(59.999084%, 0%, 19.999695%)" stroke-opacity="1" stroke-miterlimit="10" d="M 106.695312 481.292969 L 106.695312 471.402344 " transform="matrix(1, 0, 0, -1, -78, 492)"/>
<path fill="none" stroke-width="0.1" stroke-linecap="butt" stroke-linejoin="miter" stroke="rgb(59.999084%, 0%, 19.999695%)" stroke-opacity="1" stroke-miterlimit="10" d="M 98.164062 478.515625 L 115.257812 478.515625 " transform="matrix(1, 0, 0, -1, -78, 492)"/>
<path fill="none" stroke-width="0.1" stroke-linecap="butt" stroke-linejoin="miter" stroke="rgb(59.999084%, 0%, 19.999695%)" stroke-opacity="1" stroke-miterlimit="10" d="M 94.875 459.808594 L 106.695312 471.402344 L 118.546875 459.808594 " transform="matrix(1, 0, 0, -1, -78, 492)"/>
<g fill="rgb(0%, 0%, 0%)" fill-opacity="1">
<use xlink:href="#glyph-0-0" x="-0.047" y="46.082"/>
</g>
<g fill="rgb(0%, 0%, 0%)" fill-opacity="1">
<use xlink:href="#glyph-0-1" x="5.642098" y="46.082"/>
</g>
<g fill="rgb(0%, 0%, 0%)" fill-opacity="1">
<use xlink:href="#glyph-0-2" x="10.148065" y="46.082"/>
</g>
<g fill="rgb(0%, 0%, 0%)" fill-opacity="1">
<use xlink:href="#glyph-0-1" x="12.774448" y="46.082"/>
</g>
<g fill="rgb(0%, 0%, 0%)" fill-opacity="1">
<use xlink:href="#glyph-0-3" x="17.053858" y="46.082"/>
</g>
<g fill="rgb(0%, 0%, 0%)" fill-opacity="1">
<use xlink:href="#glyph-0-4" x="19.705414" y="46.082"/>
</g>
<g fill="rgb(0%, 0%, 0%)" fill-opacity="1">
<use xlink:href="#glyph-0-5" x="25.394512" y="46.082"/>
</g>
<g fill="rgb(0%, 0%, 0%)" fill-opacity="1">
<use xlink:href="#glyph-0-6" x="29.866915" y="46.082"/>
</g>
<g fill="rgb(0%, 0%, 0%)" fill-opacity="1">
<use xlink:href="#glyph-0-7" x="34.372882" y="46.082"/>
</g>
<g fill="rgb(0%, 0%, 0%)" fill-opacity="1">
<use xlink:href="#glyph-0-8" x="38.836894" y="46.082"/>
</g>
<g fill="rgb(0%, 0%, 0%)" fill-opacity="1">
<use xlink:href="#glyph-0-9" x="43.309297" y="46.082"/>
</g>
<g fill="rgb(0%, 0%, 0%)" fill-opacity="1">
<use xlink:href="#glyph-0-10" x="50.248654" y="46.082"/>
</g>
<g fill="rgb(0%, 0%, 0%)" fill-opacity="1">
<use xlink:href="#glyph-0-11" x="54.721057" y="46.082"/>
</g>
<path fill="none" stroke-width="0.1" stroke-linecap="butt" stroke-linejoin="miter" stroke="rgb(59.999084%, 0%, 19.999695%)" stroke-opacity="1" stroke-miterlimit="10" d="M 109.132812 365.640625 L 109.132812 366.519531 L 108.90625 366.71875 L 108.90625 367.371094 L 108.710938 367.597656 L 108.710938 368.023438 L 108.480469 368.21875 L 108.253906 368.445312 L 108.253906 368.675781 L 108.027344 368.871094 L 107.828125 369.097656 L 107.828125 369.296875 L 107.601562 369.296875 L 107.375 369.523438 L 107.375 369.722656 L 107.179688 369.722656 L 106.949219 369.949219 L 106.722656 370.175781 L 106.496094 370.175781 L 106.300781 370.375 L 106.070312 370.601562 L 105.617188 370.601562 L 105.421875 370.800781 L 104.769531 370.800781 L 104.542969 371.027344 L 102.785156 371.027344 L 102.558594 370.800781 L 101.90625 370.800781 L 101.679688 370.601562 L 101.253906 370.601562 L 100.828125 370.175781 L 100.601562 370.175781 L 100.148438 369.722656 L 99.949219 369.722656 L 99.949219 369.523438 L 99.722656 369.296875 L 99.496094 369.296875 L 99.496094 369.097656 L 99.269531 368.871094 L 99.070312 368.675781 L 99.070312 368.445312 L 98.84375 368.21875 L 98.617188 368.023438 L 98.617188 367.597656 L 98.417969 367.371094 L 98.417969 366.71875 L 98.191406 366.519531 L 98.191406 364.789062 L 98.417969 364.5625 L 98.417969 363.941406 L 98.617188 363.714844 L 98.617188 363.289062 L 98.84375 363.0625 L 99.070312 362.863281 L 99.070312 362.636719 L 99.496094 362.210938 L 99.496094 361.984375 L 99.722656 361.984375 L 99.949219 361.785156 L 99.949219 361.558594 L 100.148438 361.558594 L 100.375 361.359375 L 100.601562 361.132812 L 100.828125 361.132812 L 101.027344 360.933594 L 101.253906 360.710938 L 101.679688 360.710938 L 101.90625 360.480469 L 102.558594 360.480469 L 102.785156 360.28125 L 104.542969 360.28125 L 104.769531 360.480469 L 105.421875 360.480469 L 105.617188 360.710938 L 106.070312 360.710938 L 106.300781 360.933594 L 106.496094 361.132812 L 106.722656 361.132812 L 106.949219 361.359375 L 107.179688 361.558594 L 107.375 361.558594 L 107.375 361.785156 L 107.601562 361.984375 L 107.828125 361.984375 L 107.828125 362.210938 L 108.027344 362.4375 L 108.253906 362.636719 L 108.253906 362.863281 L 108.480469 363.0625 L 108.710938 363.289062 L 108.710938 363.714844 L 108.90625 363.941406 L 108.90625 364.5625 L 109.132812 364.789062 Z M 109.132812 365.640625 " transform="matrix(1, 0, 0, -1, -78, 492)"/>
<path fill="none" stroke-width="0.1" stroke-linecap="butt" stroke-linejoin="miter" stroke="rgb(59.999084%, 0%, 19.999695%)" stroke-opacity="1" stroke-miterlimit="10" d="M 103.4375 360.480469 L 103.4375 350.617188 " transform="matrix(1, 0, 0, -1, -78, 492)"/>
<path fill="none" stroke-width="0.1" stroke-linecap="butt" stroke-linejoin="miter" stroke="rgb(59.999084%, 0%, 19.999695%)" stroke-opacity="1" stroke-miterlimit="10" d="M 94.902344 357.703125 L 111.996094 357.703125 " transform="matrix(1, 0, 0, -1, -78, 492)"/>
<path fill="none" stroke-width="0.1" stroke-linecap="butt" stroke-linejoin="miter" stroke="rgb(59.999084%, 0%, 19.999695%)" stroke-opacity="1" stroke-miterlimit="10" d="M 91.617188 338.996094 L 103.4375 350.617188 L 115.257812 338.996094 " transform="matrix(1, 0, 0, -1, -78, 492)"/>
<g fill="rgb(0%, 0%, 0%)" fill-opacity="1">
<use xlink:href="#glyph-0-12" x="7.096" y="166.894"/>
</g>
<g fill="rgb(0%, 0%, 0%)" fill-opacity="1">
<use xlink:href="#glyph-0-10" x="14.035357" y="166.894"/>
</g>
<g fill="rgb(0%, 0%, 0%)" fill-opacity="1">
<use xlink:href="#glyph-0-2" x="18.50776" y="166.894"/>
</g>
<g fill="rgb(0%, 0%, 0%)" fill-opacity="1">
<use xlink:href="#glyph-0-1" x="21.134143" y="166.894"/>
</g>
<g fill="rgb(0%, 0%, 0%)" fill-opacity="1">
<use xlink:href="#glyph-0-13" x="25.64011" y="166.894"/>
</g>
<g fill="rgb(0%, 0%, 0%)" fill-opacity="1">
<use xlink:href="#glyph-0-1" x="30.112513" y="166.894"/>
</g>
<g fill="rgb(0%, 0%, 0%)" fill-opacity="1">
<use xlink:href="#glyph-0-2" x="34.584916" y="166.894"/>
</g>
<g fill="rgb(0%, 0%, 0%)" fill-opacity="1">
<use xlink:href="#glyph-0-1" x="37.009915" y="166.894"/>
</g>
<g fill="rgb(0%, 0%, 0%)" fill-opacity="1">
<use xlink:href="#glyph-0-3" x="41.515882" y="166.894"/>
</g>
<g fill="rgb(0%, 0%, 0%)" fill-opacity="1">
<use xlink:href="#glyph-0-4" x="6.671" y="177.099"/>
</g>
<g fill="rgb(0%, 0%, 0%)" fill-opacity="1">
<use xlink:href="#glyph-0-5" x="12.360098" y="177.099"/>
</g>
<g fill="rgb(0%, 0%, 0%)" fill-opacity="1">
<use xlink:href="#glyph-0-6" x="16.866065" y="177.099"/>
</g>
<g fill="rgb(0%, 0%, 0%)" fill-opacity="1">
<use xlink:href="#glyph-0-7" x="21.338468" y="177.099"/>
</g>
<g fill="rgb(0%, 0%, 0%)" fill-opacity="1">
<use xlink:href="#glyph-0-8" x="25.80248" y="177.099"/>
</g>
<g fill="rgb(0%, 0%, 0%)" fill-opacity="1">
<use xlink:href="#glyph-0-9" x="30.274883" y="177.099"/>
</g>
<g fill="rgb(0%, 0%, 0%)" fill-opacity="1">
<use xlink:href="#glyph-0-10" x="37.21424" y="177.099"/>
</g>
<g fill="rgb(0%, 0%, 0%)" fill-opacity="1">
<use xlink:href="#glyph-0-11" x="41.686643" y="177.099"/>
</g>
<path fill-rule="evenodd" fill="rgb(100%, 100%, 79.998779%)" fill-opacity="1" stroke-width="0.1" stroke-linecap="butt" stroke-linejoin="miter" stroke="rgb(59.999084%, 0%, 19.999695%)" stroke-opacity="1" stroke-miterlimit="10" d="M 327.742188 476.050781 L 327.742188 476.703125 L 327.515625 477.15625 L 327.515625 477.808594 L 327.316406 478.261719 L 327.089844 478.914062 L 326.664062 479.367188 L 326.464844 480.019531 L 326.039062 480.472656 L 325.390625 480.925781 L 324.992188 481.578125 L 324.339844 482.03125 L 323.71875 482.457031 L 323.066406 482.910156 L 322.441406 483.363281 L 321.589844 483.789062 L 320.96875 484.242188 L 320.117188 484.667969 L 319.265625 484.894531 L 318.21875 485.347656 L 317.367188 485.574219 L 316.289062 486 L 315.4375 486.226562 L 313.34375 486.679688 L 312.265625 486.90625 L 311.214844 486.90625 L 310.167969 487.105469 L 309.089844 487.105469 L 308.039062 487.332031 L 303.390625 487.332031 L 302.34375 487.105469 L 301.265625 487.105469 L 300.21875 486.90625 L 299.167969 486.90625 L 298.089844 486.679688 L 297.042969 486.453125 L 295.992188 486.226562 L 295.144531 486 L 294.066406 485.574219 L 293.214844 485.347656 L 292.167969 484.894531 L 291.316406 484.667969 L 290.464844 484.242188 L 289.84375 483.789062 L 288.992188 483.363281 L 288.367188 482.910156 L 287.71875 482.457031 L 287.09375 482.03125 L 286.441406 481.578125 L 286.042969 480.925781 L 285.390625 480.472656 L 284.96875 480.019531 L 284.769531 479.367188 L 284.34375 478.914062 L 284.117188 478.261719 L 283.917969 477.808594 L 283.917969 477.15625 L 283.691406 476.703125 L 283.691406 475.371094 L 283.917969 474.917969 L 283.917969 474.265625 L 284.117188 473.8125 L 284.34375 473.160156 L 284.769531 472.707031 L 284.96875 472.054688 L 285.390625 471.601562 L 286.042969 471.175781 L 286.441406 470.492188 L 287.09375 470.039062 L 287.71875 469.617188 L 288.367188 469.160156 L 288.992188 468.738281 L 289.84375 468.28125 L 290.464844 467.828125 L 291.316406 467.40625 L 292.167969 467.179688 L 293.214844 466.722656 L 294.066406 466.496094 L 295.144531 466.070312 L 295.992188 465.847656 L 297.042969 465.617188 L 298.089844 465.390625 L 299.167969 465.164062 L 300.21875 465.164062 L 301.265625 464.96875 L 302.34375 464.96875 L 303.390625 464.738281 L 308.039062 464.738281 L 309.089844 464.96875 L 310.167969 464.96875 L 311.214844 465.164062 L 312.265625 465.164062 L 313.34375 465.390625 L 314.390625 465.617188 L 315.4375 465.847656 L 316.289062 466.070312 L 317.367188 466.496094 L 318.21875 466.722656 L 319.265625 467.179688 L 320.117188 467.40625 L 320.96875 467.828125 L 321.589844 468.28125 L 322.441406 468.738281 L 323.066406 469.160156 L 323.71875 469.617188 L 324.339844 470.039062 L 324.992188 470.492188 L 325.390625 471.175781 L 326.039062 471.601562 L 326.464844 472.054688 L 326.664062 472.707031 L 327.089844 473.160156 L 327.316406 473.8125 L 327.515625 474.265625 L 327.515625 474.917969 L 327.742188 475.371094 Z M 327.742188 476.050781 " transform="matrix(1, 0, 0, -1, -78, 492)"/>
<g fill="rgb(0%, 0%, 0%)" fill-opacity="1">
<use xlink:href="#glyph-0-14" x="208.356" y="41.603"/>
</g>
<g fill="rgb(0%, 0%, 0%)" fill-opacity="1">
<use xlink:href="#glyph-0-7" x="214.045098" y="41.603"/>
</g>
<g fill="rgb(0%, 0%, 0%)" fill-opacity="1">
<use xlink:href="#glyph-0-10" x="218.542674" y="41.603"/>
</g>
<g fill="rgb(0%, 0%, 0%)" fill-opacity="1">
<use xlink:href="#glyph-0-7" x="223.015077" y="41.603"/>
</g>
<g fill="rgb(0%, 0%, 0%)" fill-opacity="1">
<use xlink:href="#glyph-0-3" x="227.479089" y="41.603"/>
</g>
<g fill="rgb(0%, 0%, 0%)" fill-opacity="1">
<use xlink:href="#glyph-0-0" x="229.904088" y="41.603"/>
</g>
<g fill="rgb(0%, 0%, 0%)" fill-opacity="1">
<use xlink:href="#glyph-0-1" x="235.819743" y="41.603"/>
</g>
<g fill="rgb(0%, 0%, 0%)" fill-opacity="1">
<use xlink:href="#glyph-0-2" x="240.099153" y="41.603"/>
</g>
<g fill="rgb(0%, 0%, 0%)" fill-opacity="1">
<use xlink:href="#glyph-0-1" x="242.750709" y="41.603"/>
</g>
<path fill="none" stroke-width="0.1" stroke-linecap="butt" stroke-linejoin="miter" stroke="rgb(59.999084%, 0%, 19.999695%)" stroke-opacity="1" stroke-miterlimit="10" d="M 200.691406 475.9375 L 283.097656 475.9375 L 275.753906 472.875 " transform="matrix(1, 0, 0, -1, -78, 492)"/>
<path fill="none" stroke-width="0.1" stroke-linecap="butt" stroke-linejoin="miter" stroke="rgb(59.999084%, 0%, 19.999695%)" stroke-opacity="1" stroke-miterlimit="10" d="M 283.097656 475.9375 L 275.753906 478.996094 " transform="matrix(1, 0, 0, -1, -78, 492)"/>
<path fill="none" stroke-width="0.1" stroke-linecap="butt" stroke-linejoin="miter" stroke="rgb(59.999084%, 0%, 19.999695%)" stroke-opacity="1" stroke-miterlimit="10" d="M 200.691406 475.9375 L 118.316406 475.9375 " transform="matrix(1, 0, 0, -1, -78, 492)"/>
<path fill-rule="evenodd" fill="rgb(100%, 100%, 79.998779%)" fill-opacity="1" stroke-width="0.1" stroke-linecap="butt" stroke-linejoin="miter" stroke="rgb(59.999084%, 0%, 19.999695%)" stroke-opacity="1" stroke-miterlimit="10" d="M 327.742188 355.238281 L 327.742188 355.890625 L 327.515625 356.34375 L 327.515625 356.996094 L 327.316406 357.449219 L 327.089844 358.101562 L 326.664062 358.554688 L 326.464844 359.207031 L 326.039062 359.660156 L 325.390625 360.113281 L 324.992188 360.765625 L 324.339844 361.21875 L 323.71875 361.644531 L 323.066406 362.097656 L 322.441406 362.550781 L 321.589844 362.976562 L 320.96875 363.429688 L 320.117188 363.882812 L 319.265625 364.082031 L 318.21875 364.535156 L 317.367188 364.761719 L 316.289062 365.1875 L 315.4375 365.414062 L 313.34375 365.867188 L 312.265625 366.09375 L 311.214844 366.09375 L 310.167969 366.320312 L 309.089844 366.320312 L 308.039062 366.519531 L 303.390625 366.519531 L 302.34375 366.320312 L 301.265625 366.320312 L 300.21875 366.09375 L 299.167969 366.09375 L 298.089844 365.867188 L 297.042969 365.640625 L 295.992188 365.414062 L 295.144531 365.1875 L 294.066406 364.761719 L 293.214844 364.535156 L 292.167969 364.082031 L 291.316406 363.882812 L 290.464844 363.429688 L 289.84375 362.976562 L 288.992188 362.550781 L 288.367188 362.097656 L 287.71875 361.644531 L 287.09375 361.21875 L 286.441406 360.765625 L 286.042969 360.113281 L 285.390625 359.660156 L 284.96875 359.207031 L 284.769531 358.554688 L 284.34375 358.101562 L 284.117188 357.449219 L 283.917969 356.996094 L 283.917969 356.34375 L 283.691406 355.890625 L 283.691406 354.558594 L 283.917969 354.132812 L 283.917969 353.453125 L 284.117188 352.996094 L 284.34375 352.347656 L 284.769531 351.894531 L 284.96875 351.242188 L 285.390625 350.785156 L 286.042969 350.363281 L 286.441406 349.683594 L 287.09375 349.257812 L 287.71875 348.804688 L 288.367188 348.351562 L 288.992188 347.925781 L 289.84375 347.472656 L 290.464844 347.015625 L 291.316406 346.59375 L 292.167969 346.363281 L 293.214844 345.910156 L 294.066406 345.683594 L 295.144531 345.261719 L 295.992188 345.03125 L 297.042969 344.804688 L 298.089844 344.578125 L 299.167969 344.382812 L 300.21875 344.382812 L 301.265625 344.152344 L 302.34375 344.152344 L 303.390625 343.929688 L 308.039062 343.929688 L 309.089844 344.152344 L 310.167969 344.152344 L 311.214844 344.382812 L 312.265625 344.382812 L 313.34375 344.578125 L 315.4375 345.03125 L 316.289062 345.261719 L 317.367188 345.683594 L 318.21875 345.910156 L 319.265625 346.363281 L 320.117188 346.59375 L 320.96875 347.015625 L 321.589844 347.472656 L 322.441406 347.925781 L 323.066406 348.351562 L 323.71875 348.804688 L 324.339844 349.257812 L 324.992188 349.683594 L 325.390625 350.363281 L 326.039062 350.785156 L 326.464844 351.242188 L 326.664062 351.894531 L 327.089844 352.347656 L 327.316406 352.996094 L 327.515625 353.453125 L 327.515625 354.132812 L 327.742188 354.558594 Z M 327.742188 355.238281 " transform="matrix(1, 0, 0, -1, -78, 492)"/>
<g fill="rgb(0%, 0%, 0%)" fill-opacity="1">
<use xlink:href="#glyph-0-14" x="180.009" y="162.416"/>
</g>
<g fill="rgb(0%, 0%, 0%)" fill-opacity="1">
<use xlink:href="#glyph-0-7" x="185.698098" y="162.416"/>
</g>
<g fill="rgb(0%, 0%, 0%)" fill-opacity="1">
<use xlink:href="#glyph-0-10" x="190.195674" y="162.416"/>
</g>
<g fill="rgb(0%, 0%, 0%)" fill-opacity="1">
<use xlink:href="#glyph-0-7" x="194.668077" y="162.416"/>
</g>
<g fill="rgb(0%, 0%, 0%)" fill-opacity="1">
<use xlink:href="#glyph-0-3" x="199.132089" y="162.416"/>
</g>
<g fill="rgb(0%, 0%, 0%)" fill-opacity="1">
<use xlink:href="#glyph-0-15" x="201.557088" y="162.416"/>
</g>
<g fill="rgb(0%, 0%, 0%)" fill-opacity="1">
<use xlink:href="#glyph-0-10" x="207.472743" y="162.416"/>
</g>
<g fill="rgb(0%, 0%, 0%)" fill-opacity="1">
<use xlink:href="#glyph-0-16" x="211.752153" y="162.416"/>
</g>
<g fill="rgb(0%, 0%, 0%)" fill-opacity="1">
<use xlink:href="#glyph-0-10" x="213.791166" y="162.416"/>
</g>
<g fill="rgb(0%, 0%, 0%)" fill-opacity="1">
<use xlink:href="#glyph-0-11" x="218.263569" y="162.416"/>
</g>
<g fill="rgb(0%, 0%, 0%)" fill-opacity="1">
<use xlink:href="#glyph-0-10" x="220.730523" y="162.416"/>
</g>
<g fill="rgb(0%, 0%, 0%)" fill-opacity="1">
<use xlink:href="#glyph-0-6" x="225.202926" y="162.416"/>
</g>
<g fill="rgb(0%, 0%, 0%)" fill-opacity="1">
<use xlink:href="#glyph-0-17" x="229.675329" y="162.416"/>
</g>
<g fill="rgb(0%, 0%, 0%)" fill-opacity="1">
<use xlink:href="#glyph-0-10" x="234.139341" y="162.416"/>
</g>
<g fill="rgb(0%, 0%, 0%)" fill-opacity="1">
<use xlink:href="#glyph-0-3" x="238.645308" y="162.416"/>
</g>
<g fill="rgb(0%, 0%, 0%)" fill-opacity="1">
<use xlink:href="#glyph-0-12" x="241.070307" y="162.416"/>
</g>
<g fill="rgb(0%, 0%, 0%)" fill-opacity="1">
<use xlink:href="#glyph-0-10" x="248.194266" y="162.416"/>
</g>
<g fill="rgb(0%, 0%, 0%)" fill-opacity="1">
<use xlink:href="#glyph-0-2" x="252.666669" y="162.416"/>
</g>
<g fill="rgb(0%, 0%, 0%)" fill-opacity="1">
<use xlink:href="#glyph-0-1" x="255.091668" y="162.416"/>
</g>
<g fill="rgb(0%, 0%, 0%)" fill-opacity="1">
<use xlink:href="#glyph-0-13" x="259.597635" y="162.416"/>
</g>
<g fill="rgb(0%, 0%, 0%)" fill-opacity="1">
<use xlink:href="#glyph-0-1" x="264.070038" y="162.416"/>
</g>
<g fill="rgb(0%, 0%, 0%)" fill-opacity="1">
<use xlink:href="#glyph-0-2" x="268.542441" y="162.416"/>
</g>
<g fill="rgb(0%, 0%, 0%)" fill-opacity="1">
<use xlink:href="#glyph-0-1" x="270.96744" y="162.416"/>
</g>
<path fill="none" stroke-width="0.1" stroke-linecap="butt" stroke-linejoin="miter" stroke="rgb(59.999084%, 0%, 19.999695%)" stroke-opacity="1" stroke-miterlimit="10" d="M 198.878906 355.125 L 282.867188 355.125 L 275.527344 352.0625 " transform="matrix(1, 0, 0, -1, -78, 492)"/>
<path fill="none" stroke-width="0.1" stroke-linecap="butt" stroke-linejoin="miter" stroke="rgb(59.999084%, 0%, 19.999695%)" stroke-opacity="1" stroke-miterlimit="10" d="M 282.867188 355.125 L 275.527344 358.1875 " transform="matrix(1, 0, 0, -1, -78, 492)"/>
<path fill="none" stroke-width="0.1" stroke-linecap="butt" stroke-linejoin="miter" stroke="rgb(59.999084%, 0%, 19.999695%)" stroke-opacity="1" stroke-miterlimit="10" d="M 198.878906 355.125 L 115.058594 355.125 " transform="matrix(1, 0, 0, -1, -78, 492)"/>
<path fill="none" stroke-width="0.1" stroke-linecap="butt" stroke-linejoin="miter" stroke="rgb(59.999084%, 0%, 19.999695%)" stroke-opacity="1" stroke-miterlimit="10" d="M 305.71875 404.902344 L 305.71875 442.65625 L 308.777344 435.316406 " transform="matrix(1, 0, 0, -1, -78, 492)"/>
<path fill="none" stroke-width="0.1" stroke-linecap="butt" stroke-linejoin="miter" stroke="rgb(59.999084%, 0%, 19.999695%)" stroke-opacity="1" stroke-miterlimit="10" d="M 305.71875 442.65625 L 302.65625 435.316406 " transform="matrix(1, 0, 0, -1, -78, 492)"/>
<path fill="none" stroke-width="0.1" stroke-linecap="butt" stroke-linejoin="miter" stroke="rgb(59.999084%, 0%, 19.999695%)" stroke-opacity="1" stroke-miterlimit="10" d="M 305.71875 404.902344 L 305.71875 367.171875 " transform="matrix(1, 0, 0, -1, -78, 492)"/>
<g fill="rgb(0%, 0%, 0%)" fill-opacity="1">
<use xlink:href="#glyph-0-18" x="208.129" y="85.257"/>
</g>
<g fill="rgb(0%, 0%, 0%)" fill-opacity="1">
<use xlink:href="#glyph-0-18" x="213.213946" y="85.257"/>
</g>
<g fill="rgb(0%, 0%, 0%)" fill-opacity="1">
<use xlink:href="#glyph-0-10" x="218.298892" y="85.257"/>
</g>
<g fill="rgb(0%, 0%, 0%)" fill-opacity="1">
<use xlink:href="#glyph-0-19" x="222.771295" y="85.257"/>
</g>
<g fill="rgb(0%, 0%, 0%)" fill-opacity="1">
<use xlink:href="#glyph-0-2" x="227.235307" y="85.257"/>
</g>
<g fill="rgb(0%, 0%, 0%)" fill-opacity="1">
<use xlink:href="#glyph-0-10" x="229.660306" y="85.257"/>
</g>
<g fill="rgb(0%, 0%, 0%)" fill-opacity="1">
<use xlink:href="#glyph-0-6" x="234.166273" y="85.257"/>
</g>
<g fill="rgb(0%, 0%, 0%)" fill-opacity="1">
<use xlink:href="#glyph-0-13" x="238.638676" y="85.257"/>
</g>
<g fill="rgb(0%, 0%, 0%)" fill-opacity="1">
<use xlink:href="#glyph-0-20" x="243.111079" y="85.257"/>
</g>
<g fill="rgb(0%, 0%, 0%)" fill-opacity="1">
<use xlink:href="#glyph-0-20" x="248.196025" y="85.257"/>
</g>
</svg>
