<?xml version="1.0" encoding="UTF-8"?>
<svg xmlns="http://www.w3.org/2000/svg" xmlns:xlink="http://www.w3.org/1999/xlink" width="59" height="120" viewBox="0 0 59 120">
<defs>
<g>
<g id="glyph-0-0">
<path d="M 5.15625 -4.03125 C 5.15625 -3.488281 4.972656 -3.054688 4.609375 -2.734375 C 4.253906 -2.410156 3.773438 -2.25 3.171875 -2.25 L 1.46875 -2.25 L 1.46875 0 L 0.6875 0 L 0.6875 -5.765625 L 3.125 -5.765625 C 3.769531 -5.765625 4.269531 -5.613281 4.625 -5.3125 C 4.976562 -5.007812 5.15625 -4.582031 5.15625 -4.03125 Z M 4.375 -4.03125 C 4.375 -4.769531 3.925781 -5.140625 3.03125 -5.140625 L 1.46875 -5.140625 L 1.46875 -2.875 L 3.0625 -2.875 C 3.9375 -2.875 4.375 -3.257812 4.375 -4.03125 Z M 4.375 -4.03125 "/>
</g>
<g id="glyph-0-1">
<path d="M 0.578125 0 L 0.578125 -3.40625 C 0.578125 -3.71875 0.570312 -4.0625 0.5625 -4.4375 L 1.25 -4.4375 C 1.269531 -3.925781 1.28125 -3.625 1.28125 -3.53125 L 1.296875 -3.53125 C 1.421875 -3.90625 1.554688 -4.160156 1.703125 -4.296875 C 1.859375 -4.441406 2.078125 -4.515625 2.359375 -4.515625 C 2.453125 -4.515625 2.550781 -4.5 2.65625 -4.46875 L 2.65625 -3.796875 C 2.550781 -3.828125 2.421875 -3.84375 2.265625 -3.84375 C 1.953125 -3.84375 1.710938 -3.707031 1.546875 -3.4375 C 1.390625 -3.175781 1.3125 -2.800781 1.3125 -2.3125 L 1.3125 0 Z M 0.578125 0 "/>
</g>
<g id="glyph-0-2">
<path d="M 4.3125 -2.21875 C 4.3125 -1.445312 4.140625 -0.867188 3.796875 -0.484375 C 3.460938 -0.109375 2.96875 0.078125 2.3125 0.078125 C 1.664062 0.078125 1.175781 -0.117188 0.84375 -0.515625 C 0.519531 -0.910156 0.359375 -1.476562 0.359375 -2.21875 C 0.359375 -3.75 1.019531 -4.515625 2.34375 -4.515625 C 3.019531 -4.515625 3.515625 -4.328125 3.828125 -3.953125 C 4.148438 -3.578125 4.3125 -3 4.3125 -2.21875 Z M 3.546875 -2.21875 C 3.546875 -2.832031 3.453125 -3.273438 3.265625 -3.546875 C 3.085938 -3.828125 2.785156 -3.96875 2.359375 -3.96875 C 1.921875 -3.96875 1.601562 -3.828125 1.40625 -3.546875 C 1.21875 -3.265625 1.125 -2.820312 1.125 -2.21875 C 1.125 -1.632812 1.21875 -1.195312 1.40625 -0.90625 C 1.601562 -0.613281 1.90625 -0.46875 2.3125 -0.46875 C 2.75 -0.46875 3.0625 -0.609375 3.25 -0.890625 C 3.445312 -1.171875 3.546875 -1.613281 3.546875 -2.21875 Z M 3.546875 -2.21875 "/>
</g>
<g id="glyph-0-3">
<path d="M 1.125 -2.234375 C 1.125 -1.648438 1.21875 -1.210938 1.40625 -0.921875 C 1.59375 -0.640625 1.875 -0.5 2.25 -0.5 C 2.507812 -0.5 2.726562 -0.566406 2.90625 -0.703125 C 3.082031 -0.847656 3.191406 -1.070312 3.234375 -1.375 L 3.96875 -1.3125 C 3.914062 -0.894531 3.734375 -0.554688 3.421875 -0.296875 C 3.117188 -0.046875 2.734375 0.078125 2.265625 0.078125 C 1.640625 0.078125 1.164062 -0.113281 0.84375 -0.5 C 0.519531 -0.894531 0.359375 -1.46875 0.359375 -2.21875 C 0.359375 -2.96875 0.519531 -3.535156 0.84375 -3.921875 C 1.175781 -4.316406 1.644531 -4.515625 2.25 -4.515625 C 2.707031 -4.515625 3.082031 -4.394531 3.375 -4.15625 C 3.675781 -3.925781 3.867188 -3.601562 3.953125 -3.1875 L 3.1875 -3.140625 C 3.15625 -3.378906 3.0625 -3.570312 2.90625 -3.71875 C 2.75 -3.863281 2.523438 -3.9375 2.234375 -3.9375 C 1.847656 -3.9375 1.566406 -3.804688 1.390625 -3.546875 C 1.210938 -3.285156 1.125 -2.847656 1.125 -2.234375 Z M 1.125 -2.234375 "/>
</g>
<g id="glyph-0-4">
<path d="M 1.125 -2.0625 C 1.125 -1.550781 1.226562 -1.15625 1.4375 -0.875 C 1.65625 -0.601562 1.96875 -0.46875 2.375 -0.46875 C 2.6875 -0.46875 2.9375 -0.53125 3.125 -0.65625 C 3.320312 -0.789062 3.457031 -0.957031 3.53125 -1.15625 L 4.171875 -0.96875 C 3.910156 -0.269531 3.3125 0.078125 2.375 0.078125 C 1.71875 0.078125 1.21875 -0.113281 0.875 -0.5 C 0.53125 -0.894531 0.359375 -1.476562 0.359375 -2.25 C 0.359375 -2.976562 0.53125 -3.535156 0.875 -3.921875 C 1.21875 -4.316406 1.707031 -4.515625 2.34375 -4.515625 C 3.644531 -4.515625 4.296875 -3.726562 4.296875 -2.15625 L 4.296875 -2.0625 Z M 3.53125 -2.625 C 3.488281 -3.09375 3.367188 -3.429688 3.171875 -3.640625 C 2.972656 -3.859375 2.691406 -3.96875 2.328125 -3.96875 C 1.972656 -3.96875 1.6875 -3.847656 1.46875 -3.609375 C 1.257812 -3.367188 1.148438 -3.039062 1.140625 -2.625 Z M 3.53125 -2.625 "/>
</g>
<g id="glyph-0-5">
<path d="M 3.890625 -1.21875 C 3.890625 -0.800781 3.734375 -0.476562 3.421875 -0.25 C 3.109375 -0.03125 2.664062 0.078125 2.09375 0.078125 C 1.539062 0.078125 1.113281 -0.0078125 0.8125 -0.1875 C 0.519531 -0.375 0.328125 -0.660156 0.234375 -1.046875 L 0.890625 -1.171875 C 0.953125 -0.929688 1.078125 -0.753906 1.265625 -0.640625 C 1.460938 -0.535156 1.738281 -0.484375 2.09375 -0.484375 C 2.46875 -0.484375 2.738281 -0.539062 2.90625 -0.65625 C 3.082031 -0.769531 3.171875 -0.941406 3.171875 -1.171875 C 3.171875 -1.347656 3.109375 -1.488281 2.984375 -1.59375 C 2.867188 -1.695312 2.675781 -1.785156 2.40625 -1.859375 L 1.890625 -2 C 1.460938 -2.113281 1.160156 -2.222656 0.984375 -2.328125 C 0.804688 -2.429688 0.664062 -2.554688 0.5625 -2.703125 C 0.457031 -2.859375 0.40625 -3.046875 0.40625 -3.265625 C 0.40625 -3.671875 0.550781 -3.976562 0.84375 -4.1875 C 1.132812 -4.394531 1.554688 -4.5 2.109375 -4.5 C 2.585938 -4.5 2.972656 -4.410156 3.265625 -4.234375 C 3.554688 -4.066406 3.738281 -3.796875 3.8125 -3.421875 L 3.15625 -3.328125 C 3.113281 -3.523438 3 -3.675781 2.8125 -3.78125 C 2.632812 -3.894531 2.398438 -3.953125 2.109375 -3.953125 C 1.773438 -3.953125 1.523438 -3.898438 1.359375 -3.796875 C 1.203125 -3.691406 1.125 -3.535156 1.125 -3.328125 C 1.125 -3.203125 1.15625 -3.097656 1.21875 -3.015625 C 1.289062 -2.941406 1.390625 -2.875 1.515625 -2.8125 C 1.640625 -2.757812 1.910156 -2.679688 2.328125 -2.578125 C 2.710938 -2.472656 2.988281 -2.378906 3.15625 -2.296875 C 3.332031 -2.210938 3.472656 -2.117188 3.578125 -2.015625 C 3.679688 -1.921875 3.757812 -1.804688 3.8125 -1.671875 C 3.863281 -1.546875 3.890625 -1.394531 3.890625 -1.21875 Z M 3.890625 -1.21875 "/>
</g>
<g id="glyph-0-6">
<path d="M 4.34375 -2.890625 C 4.34375 -1.921875 4.171875 -1.179688 3.828125 -0.671875 C 3.484375 -0.171875 2.984375 0.078125 2.328125 0.078125 C 1.660156 0.078125 1.160156 -0.171875 0.828125 -0.671875 C 0.492188 -1.179688 0.328125 -1.921875 0.328125 -2.890625 C 0.328125 -3.878906 0.488281 -4.617188 0.8125 -5.109375 C 1.132812 -5.609375 1.644531 -5.859375 2.34375 -5.859375 C 3.03125 -5.859375 3.535156 -5.609375 3.859375 -5.109375 C 4.179688 -4.609375 4.34375 -3.867188 4.34375 -2.890625 Z M 3.59375 -2.890625 C 3.59375 -3.722656 3.492188 -4.328125 3.296875 -4.703125 C 3.109375 -5.078125 2.789062 -5.265625 2.34375 -5.265625 C 1.894531 -5.265625 1.570312 -5.078125 1.375 -4.703125 C 1.175781 -4.335938 1.078125 -3.734375 1.078125 -2.890625 C 1.078125 -2.066406 1.175781 -1.460938 1.375 -1.078125 C 1.570312 -0.703125 1.890625 -0.515625 2.328125 -0.515625 C 2.765625 -0.515625 3.082031 -0.707031 3.28125 -1.09375 C 3.488281 -1.488281 3.59375 -2.085938 3.59375 -2.890625 Z M 3.59375 -2.890625 "/>
</g>
<g id="glyph-0-7">
<path d="M 0.765625 0 L 0.765625 -0.890625 L 1.5625 -0.890625 L 1.5625 0 Z M 0.765625 0 "/>
</g>
<g id="glyph-0-8">
<path d="M 1.875 -4.5625 L 2.953125 -4.984375 L 3.140625 -4.4375 L 1.984375 -4.140625 L 2.734375 -3.125 L 2.25 -2.828125 L 1.640625 -3.890625 L 1 -2.828125 L 0.515625 -3.125 L 1.28125 -4.140625 L 0.140625 -4.4375 L 0.3125 -5 L 1.40625 -4.5625 L 1.359375 -5.765625 L 1.921875 -5.765625 Z M 1.875 -4.5625 "/>
</g>
<g id="glyph-0-9">
<path d="M 5.21875 -1.59375 C 5.21875 -1.0625 5.007812 -0.648438 4.59375 -0.359375 C 4.175781 -0.0664062 3.585938 0.078125 2.828125 0.078125 C 1.421875 0.078125 0.601562 -0.410156 0.375 -1.390625 L 1.140625 -1.53125 C 1.222656 -1.1875 1.40625 -0.929688 1.6875 -0.765625 C 1.976562 -0.609375 2.367188 -0.53125 2.859375 -0.53125 C 3.359375 -0.53125 3.742188 -0.613281 4.015625 -0.78125 C 4.296875 -0.957031 4.4375 -1.210938 4.4375 -1.546875 C 4.4375 -1.734375 4.390625 -1.882812 4.296875 -2 C 4.210938 -2.125 4.09375 -2.222656 3.9375 -2.296875 C 3.789062 -2.378906 3.609375 -2.445312 3.390625 -2.5 C 3.171875 -2.550781 2.929688 -2.601562 2.671875 -2.65625 C 2.210938 -2.757812 1.863281 -2.863281 1.625 -2.96875 C 1.394531 -3.070312 1.210938 -3.179688 1.078125 -3.296875 C 0.941406 -3.421875 0.835938 -3.566406 0.765625 -3.734375 C 0.691406 -3.898438 0.65625 -4.09375 0.65625 -4.3125 C 0.65625 -4.8125 0.84375 -5.191406 1.21875 -5.453125 C 1.59375 -5.722656 2.132812 -5.859375 2.84375 -5.859375 C 3.5 -5.859375 4 -5.753906 4.34375 -5.546875 C 4.695312 -5.347656 4.941406 -5.007812 5.078125 -4.53125 L 4.3125 -4.390625 C 4.21875 -4.703125 4.050781 -4.925781 3.8125 -5.0625 C 3.582031 -5.195312 3.253906 -5.265625 2.828125 -5.265625 C 2.367188 -5.265625 2.015625 -5.1875 1.765625 -5.03125 C 1.523438 -4.882812 1.40625 -4.660156 1.40625 -4.359375 C 1.40625 -4.179688 1.453125 -4.03125 1.546875 -3.90625 C 1.648438 -3.789062 1.789062 -3.691406 1.96875 -3.609375 C 2.144531 -3.535156 2.5 -3.441406 3.03125 -3.328125 C 3.207031 -3.285156 3.378906 -3.242188 3.546875 -3.203125 C 3.722656 -3.160156 3.890625 -3.109375 4.046875 -3.046875 C 4.210938 -2.984375 4.363281 -2.910156 4.5 -2.828125 C 4.644531 -2.753906 4.769531 -2.660156 4.875 -2.546875 C 4.976562 -2.429688 5.0625 -2.296875 5.125 -2.140625 C 5.1875 -1.984375 5.21875 -1.800781 5.21875 -1.59375 Z M 5.21875 -1.59375 "/>
</g>
<g id="glyph-0-10">
<path d="M 2.265625 -0.03125 C 2.023438 0.03125 1.78125 0.0625 1.53125 0.0625 C 0.9375 0.0625 0.640625 -0.269531 0.640625 -0.9375 L 0.640625 -3.890625 L 0.125 -3.890625 L 0.125 -4.4375 L 0.671875 -4.4375 L 0.890625 -5.421875 L 1.375 -5.421875 L 1.375 -4.4375 L 2.203125 -4.4375 L 2.203125 -3.890625 L 1.375 -3.890625 L 1.375 -1.09375 C 1.375 -0.882812 1.40625 -0.734375 1.46875 -0.640625 C 1.539062 -0.554688 1.664062 -0.515625 1.84375 -0.515625 C 1.9375 -0.515625 2.078125 -0.535156 2.265625 -0.578125 Z M 2.265625 -0.03125 "/>
</g>
<g id="glyph-0-11">
<path d="M 4.3125 -2.234375 C 4.3125 -0.691406 3.769531 0.078125 2.6875 0.078125 C 2 0.078125 1.539062 -0.175781 1.3125 -0.6875 L 1.28125 -0.6875 C 1.289062 -0.664062 1.296875 -0.429688 1.296875 0.015625 L 1.296875 1.734375 L 0.5625 1.734375 L 0.5625 -3.53125 C 0.5625 -3.988281 0.554688 -4.289062 0.546875 -4.4375 L 1.25 -4.4375 C 1.25 -4.425781 1.253906 -4.382812 1.265625 -4.3125 C 1.273438 -4.25 1.28125 -4.144531 1.28125 -4 C 1.289062 -3.863281 1.296875 -3.769531 1.296875 -3.71875 L 1.3125 -3.71875 C 1.4375 -3.988281 1.609375 -4.1875 1.828125 -4.3125 C 2.046875 -4.445312 2.332031 -4.515625 2.6875 -4.515625 C 3.226562 -4.515625 3.632812 -4.328125 3.90625 -3.953125 C 4.175781 -3.585938 4.3125 -3.015625 4.3125 -2.234375 Z M 3.546875 -2.21875 C 3.546875 -2.832031 3.460938 -3.269531 3.296875 -3.53125 C 3.128906 -3.800781 2.863281 -3.9375 2.5 -3.9375 C 2.207031 -3.9375 1.976562 -3.875 1.8125 -3.75 C 1.644531 -3.632812 1.515625 -3.445312 1.421875 -3.1875 C 1.335938 -2.925781 1.296875 -2.582031 1.296875 -2.15625 C 1.296875 -1.582031 1.390625 -1.15625 1.578125 -0.875 C 1.765625 -0.601562 2.066406 -0.46875 2.484375 -0.46875 C 2.847656 -0.46875 3.113281 -0.597656 3.28125 -0.859375 C 3.457031 -1.128906 3.546875 -1.582031 3.546875 -2.21875 Z M 3.546875 -2.21875 "/>
</g>
</g>
</defs>
<rect x="-5.9" y="-12" width="70.8" height="144" fill="rgb(100%, 100%, 100%)" fill-opacity="1"/>
<path fill-rule="evenodd" fill="rgb(100%, 100%, 79.998779%)" fill-opacity="1" stroke-width="0.1" stroke-linecap="butt" stroke-linejoin="miter" stroke="rgb(59.999084%, 0%, 19.999695%)" stroke-opacity="1" stroke-miterlimit="10" d="M 285.078125 457.539062 L 325.84375 457.539062 L 325.84375 436.535156 L 285.078125 436.535156 Z M 285.078125 457.539062 " transform="matrix(1, 0, 0, -1, -276, 458)"/>
<g fill="rgb(0%, 0%, 0%)" fill-opacity="1">
<use xlink:href="#glyph-0-0" x="14.353" y="10.466"/>
</g>
<g fill="rgb(0%, 0%, 0%)" fill-opacity="1">
<use xlink:href="#glyph-0-1" x="20.008534" y="10.466"/>
</g>
<g fill="rgb(0%, 0%, 0%)" fill-opacity="1">
<use xlink:href="#glyph-0-2" x="22.643308" y="10.466"/>
</g>
<g fill="rgb(0%, 0%, 0%)" fill-opacity="1">
<use xlink:href="#glyph-0-3" x="27.115711" y="10.466"/>
</g>
<g fill="rgb(0%, 0%, 0%)" fill-opacity="1">
<use xlink:href="#glyph-0-4" x="31.55455" y="10.466"/>
</g>
<g fill="rgb(0%, 0%, 0%)" fill-opacity="1">
<use xlink:href="#glyph-0-5" x="36.00178" y="10.466"/>
</g>
<g fill="rgb(0%, 0%, 0%)" fill-opacity="1">
<use xlink:href="#glyph-0-5" x="40.465792" y="10.466"/>
</g>
<path fill="none" stroke-width="0.1" stroke-linecap="butt" stroke-linejoin="miter" stroke="rgb(59.999084%, 0%, 19.999695%)" stroke-opacity="1" stroke-miterlimit="10" d="M 305.773438 397.984375 L 305.773438 359.859375 " transform="matrix(1, 0, 0, -1, -276, 458)"/>
<g fill="rgb(0%, 0%, 0%)" fill-opacity="1">
<use xlink:href="#glyph-0-6" x="16.167" y="87.965"/>
</g>
<g fill="rgb(0%, 0%, 0%)" fill-opacity="1">
<use xlink:href="#glyph-0-7" x="20.61423" y="87.965"/>
</g>
<g fill="rgb(0%, 0%, 0%)" fill-opacity="1">
<use xlink:href="#glyph-0-7" x="23.240613" y="87.965"/>
</g>
<g fill="rgb(0%, 0%, 0%)" fill-opacity="1">
<use xlink:href="#glyph-0-8" x="25.665612" y="87.965"/>
</g>
<path fill="none" stroke-width="0.1" stroke-linecap="butt" stroke-linejoin="miter" stroke="rgb(59.999084%, 0%, 19.999695%)" stroke-opacity="1" stroke-miterlimit="10" d="M 305.773438 397.984375 L 305.773438 435.941406 " transform="matrix(1, 0, 0, -1, -276, 458)"/>
<path fill-rule="evenodd" fill="rgb(59.999084%, 0%, 19.999695%)" fill-opacity="1" stroke-width="0.1" stroke-linecap="butt" stroke-linejoin="miter" stroke="rgb(59.999084%, 0%, 19.999695%)" stroke-opacity="1" stroke-miterlimit="10" d="M 305.773438 435.941406 L 308.804688 430.414062 L 305.773438 424.914062 L 302.710938 430.414062 Z M 305.773438 435.941406 " transform="matrix(1, 0, 0, -1, -276, 458)"/>
<path fill-rule="evenodd" fill="rgb(100%, 100%, 79.998779%)" fill-opacity="1" stroke-width="0.1" stroke-linecap="butt" stroke-linejoin="miter" stroke="rgb(59.999084%, 0%, 19.999695%)" stroke-opacity="1" stroke-miterlimit="10" d="M 276.972656 359.660156 L 333.949219 359.660156 L 333.949219 338.65625 L 276.972656 338.65625 Z M 276.972656 359.660156 " transform="matrix(1, 0, 0, -1, -276, 458)"/>
<g fill="rgb(0%, 0%, 0%)" fill-opacity="1">
<use xlink:href="#glyph-0-0" x="5.82" y="108.375"/>
</g>
<g fill="rgb(0%, 0%, 0%)" fill-opacity="1">
<use xlink:href="#glyph-0-1" x="11.475534" y="108.375"/>
</g>
<g fill="rgb(0%, 0%, 0%)" fill-opacity="1">
<use xlink:href="#glyph-0-2" x="14.110308" y="108.375"/>
</g>
<g fill="rgb(0%, 0%, 0%)" fill-opacity="1">
<use xlink:href="#glyph-0-3" x="18.582711" y="108.375"/>
</g>
<g fill="rgb(0%, 0%, 0%)" fill-opacity="1">
<use xlink:href="#glyph-0-4" x="23.02155" y="108.375"/>
</g>
<g fill="rgb(0%, 0%, 0%)" fill-opacity="1">
<use xlink:href="#glyph-0-5" x="27.46878" y="108.375"/>
</g>
<g fill="rgb(0%, 0%, 0%)" fill-opacity="1">
<use xlink:href="#glyph-0-5" x="31.932792" y="108.375"/>
</g>
<g fill="rgb(0%, 0%, 0%)" fill-opacity="1">
<use xlink:href="#glyph-0-9" x="36.371631" y="108.375"/>
</g>
<g fill="rgb(0%, 0%, 0%)" fill-opacity="1">
<use xlink:href="#glyph-0-10" x="42.027165" y="108.375"/>
</g>
<g fill="rgb(0%, 0%, 0%)" fill-opacity="1">
<use xlink:href="#glyph-0-4" x="44.653548" y="108.375"/>
</g>
<g fill="rgb(0%, 0%, 0%)" fill-opacity="1">
<use xlink:href="#glyph-0-11" x="49.125951" y="108.375"/>
</g>
</svg>
